<svg xmlns="http://www.w3.org/2000/svg" preserveAspectRatio="xMinYMin meet" viewBox="0 0 249 81"><g fill="none"><path fill="#FE5455" d="M72.726 51.548a2.277 2.277 0 01-.573-1.593V32.774c-.03-.631.2-1.247.637-1.704a2.675 2.675 0 013.503 0c.437.457.667 1.073.637 1.704v15.59h7.85c1.497 0 2.245.652 2.245 1.958 0 1.29-.748 1.926-2.245 1.926H74.382a2.308 2.308 0 01-1.656-.7zm29.236-3.344c.267.363.402.807.382 1.258.005.343-.102.678-.303.955-.223.318-.518.58-.86.765a11.624 11.624 0 01-4.968 1.257 9.076 9.076 0 01-4.267-.955 6.608 6.608 0 01-2.803-2.723 8.169 8.169 0 01-.987-4.14 8.424 8.424 0 01.955-4.076 6.927 6.927 0 012.628-2.787 7.532 7.532 0 013.837-.987 6.99 6.99 0 013.6.907 6.051 6.051 0 012.404 2.564 8.455 8.455 0 01.923 3.917c.023.368-.09.73-.318 1.02a1.18 1.18 0 01-.908.35h-8.646c.04.978.43 1.91 1.098 2.627.718.58 1.627.87 2.548.812a5.43 5.43 0 001.592-.207 16.8 16.8 0 001.593-.589c.27-.127.557-.223.812-.318a2.2 2.2 0 01.716-.144c.385-.004.748.18.972.494zm-8.376-7.405a3.885 3.885 0 00-.955 2.437h5.923c0-.886-.29-1.748-.828-2.453a2.564 2.564 0 00-2.038-.828 2.77 2.77 0 00-2.102.844zm42.516-2.547a7.261 7.261 0 011.322 4.856v7.086a2.01 2.01 0 01-.637 1.593 2.485 2.485 0 01-1.593.557 2.533 2.533 0 01-1.592-.557 1.943 1.943 0 01-.685-1.593v-7.15a3.185 3.185 0 00-.51-2.054 1.847 1.847 0 00-1.592-.605 2.58 2.58 0 00-2.054.892 3.678 3.678 0 00-.78 2.484v6.37a2.005 2.005 0 01-.637 1.592 2.484 2.484 0 01-1.592.557 2.532 2.532 0 01-1.593-.557 1.99 1.99 0 01-.684-1.592v-7.086a3.19 3.19 0 00-.494-2.055 1.91 1.91 0 00-1.592-.605 2.627 2.627 0 00-2.055.892 3.678 3.678 0 00-.907 2.484v6.37a2.022 2.022 0 01-.653 1.592 2.5 2.5 0 01-1.592.557 2.532 2.532 0 01-1.593-.557 1.975 1.975 0 01-.669-1.592V38.936a1.881 1.881 0 01.685-1.592 2.596 2.596 0 011.592-.541 2.293 2.293 0 011.593.525c.42.38.648.93.62 1.497v.302a4.889 4.889 0 011.912-1.783 5.812 5.812 0 012.675-.605c.96-.028 1.91.197 2.755.653a4.188 4.188 0 011.72 2.133 5.191 5.191 0 012.022-2.038 5.828 5.828 0 012.945-.748 4.777 4.777 0 013.663 1.513zm16.497.127a6.704 6.704 0 011.592 4.92v6.927a2.134 2.134 0 01-.573 1.592 2.245 2.245 0 01-1.593.574 2.15 2.15 0 01-1.592-.605 2.07 2.07 0 01-.59-1.593v-.239a3.63 3.63 0 01-1.591 1.784 4.777 4.777 0 01-2.516.653 6.13 6.13 0 01-2.787-.621 4.777 4.777 0 01-1.959-1.72 4.379 4.379 0 01-.716-2.452 3.774 3.774 0 01.844-2.596 5 5 0 012.707-1.385 24.076 24.076 0 015.127-.43h.796v-.557a2.102 2.102 0 00-2.452-2.453c-1.31.104-2.594.416-3.806.924a2.85 2.85 0 01-1.194.334 1.306 1.306 0 01-1.067-.477 1.8 1.8 0 01-.398-1.242 1.688 1.688 0 01.27-1.004c.233-.313.54-.565.893-.732a9.554 9.554 0 012.611-.924 14.49 14.49 0 013.057-.334 6.592 6.592 0 014.937 1.656zm-3.647 9.984a3.328 3.328 0 00.828-2.357v-.51h-.525a10.239 10.239 0 00-3.472.399 1.417 1.417 0 00-1.003 1.433 1.843 1.843 0 00.574 1.401c.384.356.893.546 1.417.526a2.85 2.85 0 002.181-.892zm19.14-11.146c.387.365.586.887.542 1.417a1.99 1.99 0 01-.494 1.497 2.77 2.77 0 01-1.751.62l-.908.096a3.44 3.44 0 00-2.468 1.147 3.583 3.583 0 00-.765 2.356v5.86a1.975 1.975 0 01-.652 1.593 2.5 2.5 0 01-1.593.557c-.578 0-1.14-.196-1.592-.557-.45-.403-.69-.99-.653-1.593V38.936a1.91 1.91 0 01.669-1.592 2.468 2.468 0 011.592-.541 2.23 2.23 0 011.592.525c.421.38.649.93.621 1.497v.828a4.14 4.14 0 011.593-2.022 4.968 4.968 0 012.436-.797h.43c.5-.067 1.005.07 1.401.383zm4.475 14.33a6.37 6.37 0 01-2.691-2.706 8.599 8.599 0 01-.94-4.109 8.344 8.344 0 011.003-4.14 6.847 6.847 0 012.803-2.786 8.63 8.63 0 014.172-.972 9.554 9.554 0 012.468.335 8.264 8.264 0 012.23.955c.605.35.967 1.006.939 1.704.027.464-.102.923-.366 1.306a1.146 1.146 0 01-.972.51 2.038 2.038 0 01-.764-.144 9.156 9.156 0 01-.924-.414 7.627 7.627 0 00-1.162-.51 3.646 3.646 0 00-3.758.892 6.035 6.035 0 000 6.37 3.185 3.185 0 002.612 1.098 3.46 3.46 0 001.13-.159c.415-.154.82-.334 1.21-.541.382-.191.685-.319.908-.414.237-.098.492-.147.748-.144.387.003.746.2.956.526.267.387.402.851.382 1.321a1.847 1.847 0 01-.94 1.688c-.71.42-1.477.737-2.277.94a9.984 9.984 0 01-2.69.35 8.344 8.344 0 01-4.077-.955zm27.07-8.439v7.086a2.022 2.022 0 01-.637 1.593 2.357 2.357 0 01-1.704.589 2.325 2.325 0 01-1.688-.59c-.415-.422-.635-1-.605-1.592v-7.15a3.01 3.01 0 00-.573-2.006 2.197 2.197 0 00-1.752-.653 3.041 3.041 0 00-2.324.924 3.44 3.44 0 00-.86 2.452v6.37a2.07 2.07 0 01-.621 1.592 2.325 2.325 0 01-1.688.59 2.357 2.357 0 01-1.704-.59 2.07 2.07 0 01-.621-1.592V32.535a1.895 1.895 0 01.653-1.592 2.5 2.5 0 011.735-.59 2.373 2.373 0 011.593.558c.415.37.643.908.62 1.465v6.688a5.08 5.08 0 012.039-1.768 6.64 6.64 0 012.866-.589c3.514.042 5.27 2.176 5.27 6.401zm16.465 5.096c.273.361.413.805.398 1.258 0 .344-.112.68-.318.955-.224.318-.519.58-.86.765-.769.396-1.581.701-2.42.907-.833.218-1.688.335-2.548.35a9.076 9.076 0 01-4.268-.955 6.608 6.608 0 01-2.803-2.723 8.344 8.344 0 01-.987-4.14 8.424 8.424 0 01.956-4.076 6.927 6.927 0 012.627-2.787 7.532 7.532 0 013.838-.987 6.99 6.99 0 013.598.907 6.051 6.051 0 012.405 2.564 8.455 8.455 0 01.86 3.917c.03.368-.084.734-.319 1.02a1.13 1.13 0 01-.907.35h-8.583c.041.978.43 1.91 1.098 2.627.718.58 1.627.87 2.548.812a5.43 5.43 0 001.593-.207 16.8 16.8 0 001.592-.589c.27-.12.547-.226.828-.318.223-.09.46-.138.7-.144.386-.007.75.178.972.494zm-8.376-7.405a3.98 3.98 0 00-.955 2.437h5.923a4.045 4.045 0 00-.812-2.453 2.548 2.548 0 00-2.038-.828 2.77 2.77 0 00-2.118.844zm2.086-5.477a1.12 1.12 0 01-.828-.335 1.099 1.099 0 01-.334-.796c.002-.288.097-.567.27-.796l2.644-3.52a2.213 2.213 0 011.83-1.05c.507.002.993.202 1.354.557.366.33.574.798.574 1.29a2.086 2.086 0 01-.972 1.592l-3.742 2.723a1.37 1.37 0 01-.796.335z"/><path fill="#000638" d="M83.618 63.076a.908.908 0 01.27.67v15.206a.94.94 0 01-.27.7.971.971 0 01-.717.272.908.908 0 01-.7-.271.924.924 0 01-.255-.7v-1.29a3.742 3.742 0 01-1.592 1.703 4.57 4.57 0 01-2.373.605 4.777 4.777 0 01-2.707-.764 5.127 5.127 0 01-1.768-2.182 7.43 7.43 0 01-.652-3.184 7.309 7.309 0 01.652-3.185 4.91 4.91 0 011.816-2.102 4.968 4.968 0 012.707-.748 4.57 4.57 0 012.372.605 3.822 3.822 0 011.593 1.704v-6.37a.908.908 0 01.254-.684 1.083 1.083 0 011.418 0l-.048.015zm-2.596 14.125a5.111 5.111 0 00.924-3.36 5.048 5.048 0 00-.924-3.185 3.185 3.185 0 00-2.611-1.146 3.185 3.185 0 00-2.643 1.146 4.889 4.889 0 00-.956 3.185 5.16 5.16 0 00.956 3.312 3.185 3.185 0 002.643 1.178c1 .055 1.967-.364 2.611-1.13zm15.924.111a.78.78 0 01.19.542c0 .414-.27.764-.827 1.098-.57.342-1.187.6-1.831.765a7.707 7.707 0 01-1.863.254 5.717 5.717 0 01-4.268-1.592 6.035 6.035 0 01-1.592-4.427 6.975 6.975 0 01.684-3.184 5.223 5.223 0 011.96-2.15 5.334 5.334 0 012.85-.764 4.602 4.602 0 013.614 1.496 5.764 5.764 0 011.338 4.013c.018.249-.049.496-.191.7a.796.796 0 01-.621.208h-7.676c.144 2.739 1.45 4.124 3.902 4.124.541.006 1.08-.08 1.592-.255a11.48 11.48 0 001.433-.685c.255-.176.541-.3.844-.366.18 0 .35.082.462.223zm-7.086-6.99a4.347 4.347 0 00-1.099 2.707h6.784a4.283 4.283 0 00-.892-2.723 2.994 2.994 0 00-2.34-.94 3.185 3.185 0 00-2.453.956zm19.427 9.108a1.975 1.975 0 01-.67-1.592V60.322a1.975 1.975 0 01.67-1.593 2.723 2.723 0 013.296 0c.455.4.702.987.669 1.593v17.516a1.975 1.975 0 01-.67 1.592c-.973.74-2.321.74-3.295 0zm11.592-20.526c.535.731.795 1.628.732 2.532a7.818 7.818 0 01-2.308 5.574 1.242 1.242 0 01-.876.461 1.306 1.306 0 01-.908-.35 1.067 1.067 0 01-.398-.844c.003-.299.123-.584.334-.796a5.717 5.717 0 001.354-2.293 2.516 2.516 0 01-1.688-.78 2.373 2.373 0 01-.653-1.704 2.643 2.643 0 01.717-1.895 2.436 2.436 0 011.8-.748c.726-.02 1.422.29 1.894.843zm4.3 2.453a2.134 2.134 0 01-.701-1.704 2.102 2.102 0 01.7-1.736 2.882 2.882 0 011.927-.605 2.818 2.818 0 011.91.621c.487.417.757 1.032.733 1.672a2.15 2.15 0 01-.716 1.704 3.296 3.296 0 01-3.854 0v.048zm.254 18.073a2.022 2.022 0 01-.653-1.592V66.69a1.975 1.975 0 01.669-1.592 2.532 2.532 0 011.592-.542 2.452 2.452 0 011.593.542c.455.4.702.987.669 1.592v11.147a1.975 1.975 0 01-.67 1.592 2.468 2.468 0 01-1.592.557 2.548 2.548 0 01-1.608-.557zm20.987-13.471a7.325 7.325 0 011.322 4.777v7.086a2.022 2.022 0 01-.637 1.592 2.325 2.325 0 01-1.688.59 2.293 2.293 0 01-1.688-.59 2.07 2.07 0 01-.62-1.592v-6.88a3.694 3.694 0 00-.558-2.245 2.166 2.166 0 00-1.768-.7 3.057 3.057 0 00-2.324.923 3.44 3.44 0 00-.86 2.453v6.369a2.07 2.07 0 01-.621 1.592 2.325 2.325 0 01-1.688.59 2.389 2.389 0 01-1.704-.59 2.07 2.07 0 01-.621-1.592V66.548a1.99 1.99 0 01.653-1.593 2.532 2.532 0 011.704-.573 2.118 2.118 0 011.592.557c.403.38.623.913.605 1.465v.414a5.287 5.287 0 012.07-1.863 6.226 6.226 0 012.866-.637 4.92 4.92 0 013.965 1.64zm7.66 13.137a6.449 6.449 0 01-2.676-2.707 8.599 8.599 0 01-.939-4.109 8.455 8.455 0 011.003-4.156 6.91 6.91 0 012.803-2.77 8.63 8.63 0 014.172-.972 9.554 9.554 0 012.468.335 7.962 7.962 0 012.213.955c.615.342.984 1.001.956 1.704.02.463-.109.92-.367 1.306a1.162 1.162 0 01-.987.51c-.256 0-.51-.05-.748-.144a9.124 9.124 0 01-.94-.414 8.28 8.28 0 00-1.146-.51 3.185 3.185 0 00-1.147-.19 3.185 3.185 0 00-2.627 1.082 6.13 6.13 0 000 6.37 3.185 3.185 0 002.627 1.098c.383.01.765-.044 1.13-.16.412-.15.81-.331 1.195-.54l.924-.415c.232-.096.48-.145.732-.143.392-.002.759.196.971.526.268.387.402.85.383 1.321a1.83 1.83 0 01-.956 1.688 8.312 8.312 0 01-2.26.94c-.88.23-1.784.347-2.692.35a8.44 8.44 0 01-4.092-.955zm12.93.334c-.45-.403-.69-.99-.653-1.592V60.322a1.975 1.975 0 01.653-1.593 2.548 2.548 0 011.592-.557 2.5 2.5 0 011.592.557c.444.407.683.991.653 1.593v17.516a2.022 2.022 0 01-.653 1.592 2.5 2.5 0 01-1.592.557 2.55 2.55 0 01-1.592-.557zm21.48-14.41c.424.418.65.997.621 1.591V77.87a1.942 1.942 0 01-.652 1.593 2.436 2.436 0 01-1.704.589 2.182 2.182 0 01-1.593-.557c-.4-.38-.615-.915-.589-1.465v-.319a4.777 4.777 0 01-1.847 1.784 6.178 6.178 0 01-6.847-.972 7.022 7.022 0 01-1.385-4.777v-7.134a2.102 2.102 0 01.62-1.592 2.452 2.452 0 011.704-.573 2.389 2.389 0 011.688.573c.424.419.65.998.621 1.592v7.23c-.06.709.138 1.416.558 1.99.456.457 1.091.69 1.735.637a2.898 2.898 0 002.198-.907 3.52 3.52 0 00.844-2.437v-6.513a2.086 2.086 0 01.605-1.592 2.389 2.389 0 011.688-.573c.63-.04 1.252.165 1.735.573zm6.561 14.712a7.34 7.34 0 01-2.42-.97 1.91 1.91 0 01-.717-.75 2.197 2.197 0 01-.239-.987 1.736 1.736 0 01.398-1.178c.237-.304.602-.48.988-.478.271.003.54.051.796.144.254.095.541.19.828.318a9.49 9.49 0 001.688.621 7.373 7.373 0 002.038.24 3.455 3.455 0 001.672-.335c.36-.169.594-.526.605-.924a.955.955 0 00-.255-.685 2.484 2.484 0 00-.971-.477c-.478-.144-1.21-.319-2.245-.526a8.567 8.567 0 01-3.918-1.592 3.678 3.678 0 01-1.194-2.914c-.006-.9.291-1.775.844-2.484a5.605 5.605 0 012.309-1.736 8.471 8.471 0 013.312-.62c.87-.002 1.738.11 2.58.333a7.85 7.85 0 012.229.956c.615.342.984 1.001.955 1.704.02.443-.12.879-.398 1.226a1.194 1.194 0 01-.971.493 3.424 3.424 0 01-1.688-.557c-.452-.23-.92-.427-1.401-.589a5.111 5.111 0 00-1.481-.207 2.755 2.755 0 00-1.513.366 1.099 1.099 0 00.096 1.943 10.16 10.16 0 002.484.669 13.44 13.44 0 013.184.971c.688.3 1.274.792 1.688 1.417a4.14 4.14 0 01.526 2.182 4.076 4.076 0 01-1.8 3.471 7.962 7.962 0 01-4.777 1.29 14.857 14.857 0 01-3.232-.335zm12.866-18.375a2.182 2.182 0 01-.7-1.704 2.15 2.15 0 01.7-1.736 2.93 2.93 0 011.943-.605 2.818 2.818 0 011.91.621 2.15 2.15 0 01.717 1.672 2.182 2.182 0 01-.7 1.704 3.328 3.328 0 01-3.87 0v.048zm.27 18.073a1.975 1.975 0 01-.668-1.592V66.69a1.943 1.943 0 01.685-1.592 2.532 2.532 0 011.592-.542 2.49 2.49 0 011.593.542c.443.407.683.99.652 1.592v11.147a2.022 2.022 0 01-.652 1.592 2.739 2.739 0 01-3.313 0h.112zm10.558-.35a6.8 6.8 0 01-2.786-2.74 8.344 8.344 0 01-.988-4.14 8.44 8.44 0 01.988-4.155 6.656 6.656 0 012.786-2.723 9.873 9.873 0 018.408 0 6.752 6.752 0 012.739 2.723 8.44 8.44 0 01.971 4.156 8.328 8.328 0 01-.971 4.14 6.895 6.895 0 01-2.787 2.739 9.554 9.554 0 01-8.408 0h.048zm7.58-6.832a5.111 5.111 0 00-.876-3.184 3.057 3.057 0 00-2.5-1.083c-2.245 0-3.376 1.449-3.376 4.331 0 2.882 1.13 4.315 3.376 4.315 2.245 0 3.376-1.544 3.376-4.379zm20.876-6.29a7.325 7.325 0 011.305 4.778v7.086a2.07 2.07 0 01-.62 1.592 2.357 2.357 0 01-1.704.59 2.325 2.325 0 01-1.688-.59c-.416-.423-.636-1-.605-1.592v-6.88a3.583 3.583 0 00-.574-2.245 2.166 2.166 0 00-1.767-.7 3.025 3.025 0 00-2.31.923 3.376 3.376 0 00-.875 2.453v6.369c.03.592-.19 1.17-.605 1.592a2.325 2.325 0 01-1.688.59 2.357 2.357 0 01-1.704-.59 2.086 2.086 0 01-.637-1.592V66.548a1.959 1.959 0 01.67-1.593 2.484 2.484 0 011.703-.573 2.15 2.15 0 011.592.557c.397.382.611.915.59 1.465v.414a5.398 5.398 0 012.07-1.863 6.37 6.37 0 012.866-.637 4.968 4.968 0 013.98 1.64z"/><path fill="#FEA9AA" d="M34.494 38.172a10.288 10.288 0 00-3.074.462 10.43 10.43 0 106.131 19.936 10.43 10.43 0 00-3.057-20.398"/><path fill="#FE5455" d="M31.611 42.662a7.962 7.962 0 11-15.18 4.81 7.962 7.962 0 0115.18-4.81z"/><path fill="#FEE" d="M48.363.115a16.1 16.1 0 00-4.873.748 16.56 16.56 0 004.873 32.389c8.95-.278 16.063-7.614 16.063-16.569 0-8.955-7.112-16.29-16.063-16.568"/><path fill="#FE5455" d="M64.59 9.446a6.847 6.847 0 10.023 13.694 6.847 6.847 0 00-.024-13.694M54.207 67.678a7.818 7.818 0 11-9.777-5.175 7.834 7.834 0 019.777 5.175z"/><path fill="#FE8788" d="M5.895 56.118a5.382 5.382 0 10-.014 10.764 5.382 5.382 0 00.014-10.764"/><path fill="#FFCBCC" d="M55.688 46.468a4.395 4.395 0 00-1.178.175 3.997 3.997 0 001.178 7.803c.4.003.797-.056 1.178-.175a3.997 3.997 0 00-1.178-7.803"/><path fill="#FBB" d="M12.838 15.592a9.252 9.252 0 00-2.612.383 8.933 8.933 0 102.612-.383"/></g></svg>