<svg xmlns="http://www.w3.org/2000/svg" preserveAspectRatio="xMinYMin meet" viewBox="0 0 248 80"><g fill="none"><path fill="#006ADC" d="M74.303 51.357a2.213 2.213 0 01-.59-1.593V32.583a2.197 2.197 0 012.389-2.341 2.325 2.325 0 011.736.637c.436.457.666 1.073.637 1.704v15.462h7.834c1.48 0 2.23.652 2.23 1.958s-.75 1.927-2.23 1.927H75.943a2.213 2.213 0 01-1.64-.573zm29.124-3.392c.267.357.402.796.382 1.242.008.348-.098.69-.303.971a2.66 2.66 0 01-.86.749 10.36 10.36 0 01-2.404.891c-.831.225-1.687.342-2.548.35a8.997 8.997 0 01-4.251-.939 6.656 6.656 0 01-2.803-2.707 8.328 8.328 0 01-.971-4.14 8.583 8.583 0 01.94-3.98 7.102 7.102 0 012.627-2.771 7.5 7.5 0 013.821-.988 7.134 7.134 0 013.6.892 6.242 6.242 0 012.388 2.58 8.328 8.328 0 01.86 3.885c.024.367-.09.73-.319 1.02a1.162 1.162 0 01-.908.365h-8.55a4.108 4.108 0 001.098 2.612 3.599 3.599 0 002.532.796 5.43 5.43 0 001.592-.207 22.97 22.97 0 001.593-.573l.828-.335a2.42 2.42 0 01.7-.127c.366-.018.719.135.956.414zm-8.36-7.389a3.965 3.965 0 00-.94 2.437h5.892a4.045 4.045 0 00-.812-2.452 2.564 2.564 0 00-2.022-.829 2.818 2.818 0 00-2.118.844zm14.06 11.29a7.404 7.404 0 01-2.404-.971c-.3-.177-.546-.43-.717-.733a2.23 2.23 0 01-.238-1.05 1.688 1.688 0 01.398-1.163c.232-.301.59-.478.97-.478.271.003.54.046.797.128l.828.334c.548.246 1.112.454 1.688.621a7.436 7.436 0 002.038.223 3.455 3.455 0 001.593-.334c.356-.162.586-.516.589-.908a.892.892 0 00-.255-.685 2.373 2.373 0 00-.971-.477c-.462-.144-1.21-.319-2.23-.526a8.328 8.328 0 01-3.9-1.592 3.63 3.63 0 01-1.195-2.898 3.965 3.965 0 01.844-2.468 5.382 5.382 0 012.388-1.672 8.328 8.328 0 013.296-.621 9.84 9.84 0 012.596.302 8.34 8.34 0 012.23.94c.614.35.982 1.013.955 1.72a1.99 1.99 0 01-.398 1.225c-.237.304-.602.48-.988.478a3.551 3.551 0 01-1.592-.541 9.076 9.076 0 00-1.401-.605 5.042 5.042 0 00-1.481-.191 2.739 2.739 0 00-1.497.35c-.34.196-.548.562-.541.955-.005.427.246.816.637.988.791.325 1.62.55 2.468.668a14.32 14.32 0 013.184.956 3.774 3.774 0 011.593 1.433c.373.659.555 1.409.525 2.165a4.029 4.029 0 01-1.783 3.456 7.962 7.962 0 01-4.777 1.274c-1.09.017-2.18-.084-3.249-.303zm33.997-3.901c.268.357.403.796.382 1.242.008.348-.098.69-.302.971a2.66 2.66 0 01-.86.749c-.766.398-1.58.697-2.42.891a9.952 9.952 0 01-2.532.35 8.997 8.997 0 01-4.252-.939 6.576 6.576 0 01-2.802-2.707 9.283 9.283 0 010-8.2 7.102 7.102 0 012.627-2.771 7.42 7.42 0 013.822-.987 7.038 7.038 0 013.582.891 6.178 6.178 0 012.405 2.58 8.328 8.328 0 01.86 3.885c.024.368-.09.731-.319 1.02a1.193 1.193 0 01-.907.366h-8.551a4.108 4.108 0 001.098 2.611 3.599 3.599 0 002.532.796 5.51 5.51 0 001.593-.207 22.97 22.97 0 001.592-.573l.812-.334a2.61 2.61 0 01.717-.128c.368.012.71.194.923.494zm-8.36-7.389a3.965 3.965 0 00-.94 2.437h5.893a4.045 4.045 0 00-.813-2.452 2.564 2.564 0 00-2.022-.829 2.787 2.787 0 00-2.118.844zm33.854-2.531a7.213 7.213 0 011.321 4.777v7.133a2.07 2.07 0 01-.636 1.593 2.485 2.485 0 01-1.593.557c-.578 0-1.14-.197-1.592-.557a1.975 1.975 0 01-.669-1.593v-7.133a3.185 3.185 0 00-.51-2.054 1.895 1.895 0 00-1.592-.606 2.58 2.58 0 00-2.054.892 3.662 3.662 0 00-.828 2.532v6.37a2.005 2.005 0 01-.637 1.592 2.485 2.485 0 01-1.592.557 2.56 2.56 0 01-1.593-.557 1.975 1.975 0 01-.668-1.593v-7.133a3.186 3.186 0 00-.494-2.054 1.943 1.943 0 00-1.592-.606 2.58 2.58 0 00-2.055.892 3.662 3.662 0 00-.764 2.468v6.37a2.022 2.022 0 01-.653 1.592 2.691 2.691 0 01-3.328.064 1.943 1.943 0 01-.685-1.593V38.81a1.93 1.93 0 01.685-1.592 2.596 2.596 0 011.593-.542 2.23 2.23 0 011.592.526c.414.377.636.921.605 1.48v.303a5.08 5.08 0 011.91-1.767 5.908 5.908 0 012.676-.606 5.398 5.398 0 012.77.606 4.22 4.22 0 011.72 2.117 5.318 5.318 0 012.007-2.022 5.876 5.876 0 012.946-.748 4.777 4.777 0 013.71 1.48zm17.532-.494a6.656 6.656 0 012.34 2.85c.583 1.29.87 2.694.844 4.109a9.363 9.363 0 01-.844 4.012 6.13 6.13 0 01-5.796 3.647 6.12 6.12 0 01-2.77-.621 4.586 4.586 0 01-1.895-1.752v5.765a1.847 1.847 0 01-.621 1.464 2.261 2.261 0 01-1.593.558 2.548 2.548 0 01-1.72-.573 1.943 1.943 0 01-.652-1.593V38.81a2.086 2.086 0 01.62-1.592 2.309 2.309 0 011.593-.59 2.23 2.23 0 011.592.59c.425.417.651.997.621 1.592v.239a4.777 4.777 0 012.039-1.831 6.003 6.003 0 012.802-.653 6.178 6.178 0 013.44.987zm-2.277 10.032a4.876 4.876 0 00.891-3.185 5.207 5.207 0 00-.891-3.185 2.994 2.994 0 00-2.5-1.146 3.025 3.025 0 00-2.516 1.13 6.194 6.194 0 000 6.37 3.408 3.408 0 005.016 0v.016zm8.933 3.965a2.022 2.022 0 01-.653-1.593V32.44a2.022 2.022 0 01.653-1.592 2.548 2.548 0 011.592-.541c.578-.01 1.14.181 1.592.541.444.407.684.991.653 1.592v17.516a2.022 2.022 0 01-.653 1.593 2.5 2.5 0 01-1.592.557 2.55 2.55 0 01-1.592-.557zm10.525-.335a6.72 6.72 0 01-2.77-2.723 9.172 9.172 0 010-8.28 6.768 6.768 0 012.77-2.707 9.809 9.809 0 018.376 0 6.72 6.72 0 012.787 2.707 9.315 9.315 0 010 8.28 6.656 6.656 0 01-2.787 2.723 9.65 9.65 0 01-8.376 0zm7.548-6.863a5.096 5.096 0 00-.86-3.184 3.057 3.057 0 00-2.5-1.083c-2.23 0-3.36 1.449-3.36 4.315 0 2.866 1.13 4.315 3.36 4.315s3.36-1.48 3.36-4.363zm7.866-10.796a2.134 2.134 0 01-.7-1.704 2.038 2.038 0 01.7-1.672 2.803 2.803 0 011.927-.62 2.739 2.739 0 011.91.636c.461.4.723.983.717 1.593a2.182 2.182 0 01-.7 1.703 3.296 3.296 0 01-3.854 0v.064zm.191 17.994a2.022 2.022 0 01-.653-1.593V38.81a1.975 1.975 0 01.67-1.592 2.532 2.532 0 011.592-.542 2.404 2.404 0 011.592.542c.455.4.702.987.669 1.592v11.146a1.975 1.975 0 01-.67 1.593 2.42 2.42 0 01-1.591.557 2.516 2.516 0 01-1.609-.557zm9.953.318a7.484 7.484 0 01-2.42-.971 1.927 1.927 0 01-.701-.733 2.23 2.23 0 01-.24-1.05 1.688 1.688 0 01.399-1.163c.23-.303.59-.48.971-.478.27.004.539.047.796.128l.828.334c.542.246 1.101.454 1.672.621a7.643 7.643 0 002.054.223 3.424 3.424 0 001.593-.334c.36-.16.596-.514.605-.908a.892.892 0 00-.27-.685 2.389 2.389 0 00-.956-.477c-.462-.144-1.21-.319-2.23-.526a8.392 8.392 0 01-3.917-1.592 3.63 3.63 0 01-1.194-2.898 3.965 3.965 0 01.844-2.468 5.478 5.478 0 012.373-1.672 8.44 8.44 0 013.296-.621c.87-.001 1.738.111 2.58.334a8.535 8.535 0 012.229.94 1.91 1.91 0 01.94 1.72c.014.442-.127.876-.399 1.225-.23.304-.59.48-.971.478a3.551 3.551 0 01-1.688-.541 9.682 9.682 0 00-1.386-.606c-.481-.136-.98-.2-1.48-.19a2.707 2.707 0 00-1.497.35 1.083 1.083 0 00.096 1.943c.79.33 1.619.554 2.467.668 1.096.19 2.166.51 3.185.956a3.917 3.917 0 011.688 1.433 4.379 4.379 0 01-1.274 5.62 7.962 7.962 0 01-4.777 1.275 14.777 14.777 0 01-3.216-.335z"/><path fill="#000638" d="M83.395 62.774a.971.971 0 01.255.669v15.175a.971.971 0 11-1.847 0v-1.29a3.774 3.774 0 01-1.593 1.688 4.57 4.57 0 01-2.372.605 4.777 4.777 0 01-2.692-.764 5.08 5.08 0 01-1.815-2.134 7.436 7.436 0 01-.637-3.185 7.293 7.293 0 01.637-3.184 4.777 4.777 0 014.507-2.835 4.57 4.57 0 012.372.59 3.822 3.822 0 011.593 1.703v-6.37a.908.908 0 01.238-.668 1.13 1.13 0 011.434 0h-.08zm-2.58 14.092a5.223 5.223 0 00.988-3.28 5.111 5.111 0 00-.924-3.264 3.185 3.185 0 00-2.611-1.147 3.185 3.185 0 00-2.628 1.147 4.777 4.777 0 00-.955 3.184 5.08 5.08 0 00.955 3.297 3.535 3.535 0 005.239 0l-.064.063zm15.876.16c.131.155.2.354.191.557 0 .398-.286.764-.844 1.099a7.564 7.564 0 01-3.662 1.003 5.717 5.717 0 01-4.268-1.593 6.067 6.067 0 01-1.592-4.41 6.863 6.863 0 01.7-3.185 5.048 5.048 0 011.943-2.134 5.334 5.334 0 012.85-.764 4.618 4.618 0 013.6 1.48 5.717 5.717 0 011.337 3.997c.021.25-.046.498-.191.701a.796.796 0 01-.621.207h-7.66c.144 2.739 1.45 4.108 3.902 4.108.541.006 1.08-.08 1.592-.254a11.48 11.48 0 001.433-.685c.249-.173.531-.292.828-.35.18 0 .35.082.462.222zm-7.07-6.96a4.395 4.395 0 00-1.099 2.692h6.752a4.14 4.14 0 00-.876-2.707 2.994 2.994 0 00-2.34-.987 3.185 3.185 0 00-2.437.94v.063zm19.347 9.014a2.022 2.022 0 01-.653-1.593V59.971a2.022 2.022 0 01.653-1.592 2.548 2.548 0 011.593-.541 2.48 2.48 0 011.592.541c.444.407.683.99.653 1.592v17.516a2.022 2.022 0 01-.653 1.593 2.5 2.5 0 01-1.592.557c-.58 0-1.14-.196-1.593-.557zm11.577-20.462c.517.721.775 1.597.732 2.484a7.77 7.77 0 01-2.293 5.557c-.242.274-.59.43-.955.43a1.385 1.385 0 01-.908-.35 1.099 1.099 0 01-.398-.844c.003-.299.123-.585.334-.796a5.494 5.494 0 001.37-2.245 2.564 2.564 0 01-1.593-.765 2.357 2.357 0 01-.637-1.704 2.58 2.58 0 01.637-1.879 2.325 2.325 0 011.784-.748 2.452 2.452 0 011.927.86zm4.251 2.484a2.182 2.182 0 01-.7-1.704 2.102 2.102 0 01.7-1.592 2.834 2.834 0 011.927-.621 2.739 2.739 0 011.91.637c.461.4.723.982.717 1.592a2.134 2.134 0 01-.684 1.688 3.296 3.296 0 01-3.87 0zm.27 18.01a1.975 1.975 0 01-.668-1.593V66.373a1.943 1.943 0 01.685-1.593 2.755 2.755 0 013.28 0c.444.407.683.991.653 1.593v11.146a2.022 2.022 0 01-.653 1.592 2.721 2.721 0 01-3.296 0zm20.924-13.456a7.277 7.277 0 011.322 4.777v7.054c.037.6-.197 1.184-.637 1.593a2.707 2.707 0 01-3.376 0c-.417-.422-.637-1-.605-1.593v-6.83a3.551 3.551 0 00-.573-2.23 2.118 2.118 0 00-1.752-.7 3.025 3.025 0 00-2.308.923 3.392 3.392 0 00-.86 2.436v6.37a2.054 2.054 0 01-.621 1.592 2.36 2.36 0 01-1.672.589 2.436 2.436 0 01-1.704-.59 2.054 2.054 0 01-.621-1.592V66.31a1.94 1.94 0 01.653-1.592 2.5 2.5 0 011.703-.574 2.15 2.15 0 011.593.558c.398.375.618.902.605 1.449v.43a5.255 5.255 0 011.99-1.863 6.274 6.274 0 012.867-.637 4.92 4.92 0 013.996 1.576zm7.644 13.09a6.497 6.497 0 01-2.675-2.692 8.567 8.567 0 01-.924-4.092 8.296 8.296 0 01.987-4.14 6.863 6.863 0 012.787-2.771 8.615 8.615 0 014.156-.971 9.395 9.395 0 012.468.334 8.424 8.424 0 012.213.94 1.91 1.91 0 01.956 1.72c.017.457-.11.909-.366 1.29a1.15 1.15 0 01-.988.509 1.959 1.959 0 01-.748-.144c-.239 0-.541-.223-.924-.398a8.583 8.583 0 00-1.146-.525 3.185 3.185 0 00-1.147-.191 3.185 3.185 0 00-2.611 1.098 4.777 4.777 0 00-.908 3.185 4.904 4.904 0 00.908 3.185 3.185 3.185 0 002.611 1.099c.384.003.766-.056 1.131-.176a9.554 9.554 0 001.178-.525l.924-.414c.232-.098.481-.147.732-.143.392 0 .757.197.972.525.265.382.4.84.382 1.306.034.7-.338 1.357-.956 1.688a8.312 8.312 0 01-2.26.94 10.72 10.72 0 01-2.692.334 8.312 8.312 0 01-4.06-.972zm12.882.334a1.975 1.975 0 01-.669-1.593V59.971a1.975 1.975 0 01.669-1.592c.98-.72 2.315-.72 3.296 0 .45.403.69.99.653 1.592v17.516a1.975 1.975 0 01-.653 1.593c-.974.74-2.322.74-3.296 0zm21.322-14.363c.43.414.662.994.637 1.592v11.146a1.91 1.91 0 01-.67 1.593c-.469.4-1.07.61-1.687.589a2.182 2.182 0 01-1.593-.557 1.959 1.959 0 01-.589-1.465v-.303a4.682 4.682 0 01-1.815 1.768 6.242 6.242 0 01-6.815-.956 7.054 7.054 0 01-1.386-4.777V66.31a2.07 2.07 0 01.621-1.592 2.452 2.452 0 011.704-.574 2.309 2.309 0 011.672.574c.427.416.653.996.621 1.592v7.15c-.05.703.147 1.4.558 1.974.456.457 1.091.69 1.735.637a2.787 2.787 0 002.182-.924 3.408 3.408 0 00.844-2.404v-6.37a2.07 2.07 0 01.605-1.592 2.389 2.389 0 011.688-.573c.607-.05 1.21.132 1.688.51zm6.624 14.665a7.484 7.484 0 01-2.42-.971 1.927 1.927 0 01-.701-.733 2.23 2.23 0 01-.24-1.05 1.688 1.688 0 01.399-1.163c.23-.303.59-.48.971-.478.272.001.541.05.797.144.281.09.558.197.828.318.516.243 1.048.45 1.592.621a7.643 7.643 0 002.054.223 3.38 3.38 0 001.592-.334c.36-.16.596-.514.605-.908a.892.892 0 00-.27-.685 2.277 2.277 0 00-.956-.477c-.461-.144-1.21-.319-2.229-.526a8.392 8.392 0 01-3.917-1.592 3.63 3.63 0 01-1.194-2.898 3.965 3.965 0 01.844-2.469 5.605 5.605 0 012.308-1.735 8.44 8.44 0 013.297-.621c.87 0 1.737.112 2.58.334a8.535 8.535 0 012.229.94c.603.359.963 1.018.94 1.72.016.442-.125.877-.399 1.226-.23.303-.59.48-.971.477a3.551 3.551 0 01-1.688-.541 9.682 9.682 0 00-1.386-.605 5.036 5.036 0 00-1.48-.191 2.707 2.707 0 00-1.497.35 1.083 1.083 0 00.096 1.943c.79.33 1.619.555 2.467.668 1.095.194 2.164.515 3.185.956a3.96 3.96 0 011.672 1.433 4.379 4.379 0 01-1.274 5.621 7.962 7.962 0 01-4.777 1.274 14.777 14.777 0 01-3.057-.27zm12.834-18.28a2.134 2.134 0 01-.7-1.704 2.038 2.038 0 01.7-1.592 3.185 3.185 0 013.822 0c.47.394.738.979.732 1.592a2.15 2.15 0 01-.716 1.704 3.28 3.28 0 01-3.838 0zm.303 17.978c-.45-.403-.69-.99-.653-1.593V66.341a1.975 1.975 0 01.669-1.593 2.516 2.516 0 011.592-.541 2.452 2.452 0 011.592.541c.45.403.69.99.653 1.593v11.146a1.975 1.975 0 01-.653 1.593c-.974.74-2.322.74-3.296 0h.096zm10.477-.35a6.752 6.752 0 01-2.786-2.724 9.315 9.315 0 010-8.28 6.815 6.815 0 012.786-2.707 9.809 9.809 0 018.376 0 6.815 6.815 0 012.787 2.707 9.315 9.315 0 010 8.28 6.752 6.752 0 01-2.787 2.723 9.65 9.65 0 01-8.376 0zm7.548-6.864a4.984 4.984 0 00-.876-3.184 2.994 2.994 0 00-2.484-1.067c-2.245 0-3.36 1.433-3.36 4.299 0 2.866 1.115 4.315 3.36 4.315 2.246 0 3.36-1.48 3.36-4.363zm20.812-6.21a7.277 7.277 0 011.306 4.777v7.054a2.054 2.054 0 01-.621 1.593 2.436 2.436 0 01-1.704.589 2.373 2.373 0 01-1.672-.59 2.038 2.038 0 01-.605-1.592v-6.83a3.55 3.55 0 00-.573-2.23 2.134 2.134 0 00-1.752-.7 2.994 2.994 0 00-2.309.923 3.344 3.344 0 00-.875 2.436v6.37a2.102 2.102 0 01-.606 1.592 2.707 2.707 0 01-3.375 0 2.006 2.006 0 01-.637-1.593V66.31a1.91 1.91 0 01.669-1.592 2.468 2.468 0 011.687-.574 2.182 2.182 0 011.593.558c.394.376.608.904.589 1.449v.43a5.398 5.398 0 012.07-1.863 6.194 6.194 0 012.85-.637 4.92 4.92 0 013.965 1.576z"/><path fill="#7FB4ED" d="M34.43 37.949a10.796 10.796 0 00-3.057.462 10.398 10.398 0 003.057 20.35 10.258 10.258 0 003.057-.462 10.414 10.414 0 00-3.057-20.35"/><path fill="#006ADC" d="M31.564 42.44a7.866 7.866 0 11-9.841-5.223 7.85 7.85 0 019.84 5.222z"/><path fill="#E5F0FB" d="M48.363.035a16.513 16.513 0 1015.733 11.704A16.64 16.64 0 0048.363.035"/><path fill="#3388E3" d="M64.446 9.318a6.831 6.831 0 00-1.226 13.536 6.815 6.815 0 002.452-13.408 6.545 6.545 0 00-1.226-.128"/><path fill="#006ADC" d="M54.08 67.376a7.803 7.803 0 11-9.746-5.175 7.787 7.787 0 019.746 5.175z"/><path fill="#4C96E6" d="M5.927 55.847a5.366 5.366 0 105.127 3.79 5.414 5.414 0 00-5.127-3.79"/><path fill="#B2D2F4" d="M55.56 46.23a4.204 4.204 0 00-1.162.174 3.965 3.965 0 001.163 7.771c.394.004.786-.055 1.162-.175a3.965 3.965 0 00-1.162-7.77"/><path fill="#99C3F1" d="M12.854 15.449a8.87 8.87 0 000 17.739 9.156 9.156 0 002.595-.382 8.87 8.87 0 00-2.595-17.357"/></g></svg>