<svg xmlns="http://www.w3.org/2000/svg" preserveAspectRatio="xMinYMin meet" viewBox="0 0 298 81"><g fill="none" transform="translate(-1 -1)"><path fill="#000638" d="M84.618 64.076a.908.908 0 01.27.67v15.206a.94.94 0 01-.27.7.971.971 0 01-.717.271.908.908 0 01-.7-.27.924.924 0 01-.255-.701v-1.29a3.822 3.822 0 01-1.593 1.704 4.57 4.57 0 01-2.372.605 4.777 4.777 0 01-2.707-.764 5.127 5.127 0 01-1.768-2.182 7.43 7.43 0 01-.653-3.184 7.309 7.309 0 01.653-3.185 4.909 4.909 0 011.815-2.102 4.968 4.968 0 012.707-.748 4.57 4.57 0 012.373.605 3.822 3.822 0 011.592 1.703v-6.369a.908.908 0 01.255-.685 1.083 1.083 0 011.417 0l-.047.016zM82.022 78.2a5.111 5.111 0 00.924-3.36 5.048 5.048 0 00-.924-3.184 3.185 3.185 0 00-2.611-1.147 3.185 3.185 0 00-2.644 1.147 4.889 4.889 0 00-.955 3.185 5.16 5.16 0 00.955 3.312 3.185 3.185 0 002.644 1.178c1 .055 1.967-.364 2.611-1.13zm15.924.112a.78.78 0 01.19.541c0 .414-.27.765-.827 1.099-.57.342-1.187.6-1.832.764a7.707 7.707 0 01-1.863.255 5.717 5.717 0 01-4.267-1.592 6.035 6.035 0 01-1.592-4.427 6.975 6.975 0 01.684-3.185 5.223 5.223 0 011.959-2.15 5.334 5.334 0 012.85-.764 4.602 4.602 0 013.615 1.497 5.764 5.764 0 011.337 4.013c.02.248-.048.496-.19.7a.796.796 0 01-.622.208h-7.675c.143 2.738 1.45 4.124 3.901 4.124.542.006 1.08-.08 1.593-.255a11.48 11.48 0 001.433-.685c.254-.176.541-.3.844-.366.18 0 .35.082.462.223zm-7.086-6.99a4.347 4.347 0 00-1.1 2.706h6.784a4.283 4.283 0 00-.891-2.722 2.994 2.994 0 00-2.341-.94 3.185 3.185 0 00-2.452.955zm19.426 9.108a1.975 1.975 0 01-.668-1.593V61.322a1.975 1.975 0 01.668-1.593 2.723 2.723 0 013.297 0c.455.4.702.987.668 1.593v17.515a1.975 1.975 0 01-.668 1.593c-.974.74-2.323.74-3.297 0zm11.593-20.526c.535.731.795 1.628.732 2.532a7.818 7.818 0 01-2.309 5.573 1.242 1.242 0 01-.876.462 1.306 1.306 0 01-.907-.35 1.067 1.067 0 01-.398-.844c.003-.299.123-.585.334-.796a5.717 5.717 0 001.354-2.293 2.516 2.516 0 01-1.688-.78 2.373 2.373 0 01-.653-1.704 2.643 2.643 0 01.716-1.895 2.436 2.436 0 011.8-.749 2.405 2.405 0 011.895.844zm4.299 2.453a2.134 2.134 0 01-.7-1.704 2.102 2.102 0 01.7-1.736 2.882 2.882 0 011.927-.605 2.818 2.818 0 011.91.621 2.1 2.1 0 01.733 1.672 2.15 2.15 0 01-.716 1.704 3.296 3.296 0 01-3.854 0v.048zm.255 18.073a2.022 2.022 0 01-.653-1.593V67.691a1.975 1.975 0 01.669-1.592 2.532 2.532 0 011.592-.542 2.452 2.452 0 011.592.542c.456.4.703.987.67 1.592v11.146a1.975 1.975 0 01-.67 1.593 2.468 2.468 0 01-1.592.557 2.548 2.548 0 01-1.608-.557zm20.987-13.472a7.325 7.325 0 011.322 4.778v7.085a2.022 2.022 0 01-.637 1.593 2.325 2.325 0 01-1.688.589 2.293 2.293 0 01-1.688-.59 2.07 2.07 0 01-.621-1.592v-6.878a3.694 3.694 0 00-.557-2.246 2.166 2.166 0 00-1.768-.7 3.057 3.057 0 00-2.325.923 3.44 3.44 0 00-.86 2.452v6.37a2.07 2.07 0 01-.62 1.592 2.325 2.325 0 01-1.689.59 2.389 2.389 0 01-1.703-.59 2.07 2.07 0 01-.621-1.592V67.548a1.99 1.99 0 01.653-1.593 2.532 2.532 0 011.703-.573 2.118 2.118 0 011.593.557c.402.38.623.913.605 1.465v.414a5.287 5.287 0 012.07-1.863 6.226 6.226 0 012.866-.637 4.92 4.92 0 013.965 1.64zm7.66 13.137a6.449 6.449 0 01-2.676-2.707 8.599 8.599 0 01-.94-4.108 8.455 8.455 0 011.004-4.156 6.91 6.91 0 012.802-2.77 8.63 8.63 0 014.172-.972 9.554 9.554 0 012.468.334 7.962 7.962 0 012.214.956c.614.342.984 1 .955 1.704.02.463-.108.92-.366 1.305a1.162 1.162 0 01-.987.51c-.257 0-.51-.049-.749-.143l-.94-.414a8.28 8.28 0 00-1.146-.51 3.185 3.185 0 00-1.146-.191 3.185 3.185 0 00-2.628 1.083 6.13 6.13 0 000 6.37 3.185 3.185 0 002.628 1.098c.383.01.765-.044 1.13-.16.411-.15.81-.331 1.195-.54l.923-.415c.232-.096.481-.145.733-.143.392-.003.759.196.971.525.268.388.402.852.382 1.322a1.83 1.83 0 01-.955 1.688 8.312 8.312 0 01-2.261.94 10.77 10.77 0 01-2.691.35 8.44 8.44 0 01-4.093-.956zm12.93.335a1.976 1.976 0 01-.654-1.593V61.322a1.975 1.975 0 01.653-1.593 2.548 2.548 0 011.593-.557 2.5 2.5 0 011.592.557c.444.407.683.991.653 1.593v17.515a2.022 2.022 0 01-.653 1.593 2.5 2.5 0 01-1.592.557c-.58 0-1.14-.196-1.593-.557zm21.48-14.411c.423.419.649.998.621 1.592V78.87c.042.604-.2 1.192-.653 1.593a2.436 2.436 0 01-1.704.589 2.182 2.182 0 01-1.592-.558 1.9 1.9 0 01-.59-1.465v-.318a4.777 4.777 0 01-1.846 1.783 6.178 6.178 0 01-6.847-.97 7.022 7.022 0 01-1.386-4.778v-7.134a2.102 2.102 0 01.621-1.592 2.452 2.452 0 011.704-.573 2.389 2.389 0 011.688.573c.423.419.649.998.621 1.592v7.23c-.06.709.137 1.416.557 1.99a2.2 2.2 0 001.736.637 2.898 2.898 0 002.197-.908 3.52 3.52 0 00.844-2.436v-6.513a2.086 2.086 0 01.605-1.592 2.389 2.389 0 011.688-.573 2.45 2.45 0 011.736.573zm6.56 14.713a7.34 7.34 0 01-2.42-.971 1.91 1.91 0 01-.716-.748 2.197 2.197 0 01-.24-.988 1.736 1.736 0 01.399-1.178c.237-.304.602-.48.987-.478.272.003.54.051.796.144.255.095.542.19.828.318a9.49 9.49 0 001.688.621 7.373 7.373 0 002.038.239 3.455 3.455 0 001.672-.334c.36-.17.595-.527.605-.924a.955.955 0 00-.254-.685 2.484 2.484 0 00-.972-.477c-.477-.144-1.21-.319-2.245-.526a8.567 8.567 0 01-3.917-1.592 3.678 3.678 0 01-1.194-2.914c-.007-.9.29-1.775.844-2.484a5.605 5.605 0 012.308-1.736 8.471 8.471 0 013.313-.621c.87 0 1.737.112 2.58.334a7.85 7.85 0 012.228.956c.615.342.985 1 .956 1.704.02.443-.121.879-.398 1.226a1.194 1.194 0 01-.972.493 3.424 3.424 0 01-1.687-.557c-.452-.23-.92-.427-1.402-.59a5.111 5.111 0 00-1.48-.206 2.755 2.755 0 00-1.513.366 1.099 1.099 0 00.095 1.943 10.16 10.16 0 002.484.669 13.44 13.44 0 013.185.97 3.89 3.89 0 011.688 1.418 4.14 4.14 0 01.525 2.182 4.076 4.076 0 01-1.799 3.47 7.962 7.962 0 01-4.777 1.29 14.857 14.857 0 01-3.233-.334zm12.867-18.375a2.182 2.182 0 01-.7-1.704 2.15 2.15 0 01.7-1.736 2.93 2.93 0 011.942-.605 2.818 2.818 0 011.911.621 2.15 2.15 0 01.717 1.672 2.182 2.182 0 01-.7 1.704 3.328 3.328 0 01-3.87 0v.048zm.27 18.073a1.975 1.975 0 01-.668-1.593V67.691a1.943 1.943 0 01.684-1.592 2.532 2.532 0 011.593-.542c.577-.01 1.14.181 1.592.542.444.407.683.99.653 1.592v11.146a2.022 2.022 0 01-.653 1.593 2.739 2.739 0 01-3.312 0h.111zm10.558-.35a6.8 6.8 0 01-2.787-2.74 8.344 8.344 0 01-.987-4.14 8.44 8.44 0 01.987-4.156 6.656 6.656 0 012.787-2.722 9.873 9.873 0 018.407 0 6.752 6.752 0 012.74 2.722 8.44 8.44 0 01.97 4.156 8.328 8.328 0 01-.97 4.14 6.895 6.895 0 01-2.787 2.74 9.554 9.554 0 01-8.408 0h.048zm7.58-6.832a5.111 5.111 0 00-.876-3.184 3.057 3.057 0 00-2.5-1.083c-2.246 0-3.376 1.449-3.376 4.33 0 2.883 1.13 4.316 3.376 4.316 2.245 0 3.375-1.544 3.375-4.379zm20.875-6.29a7.325 7.325 0 011.306 4.778v7.085a2.07 2.07 0 01-.621 1.593 2.357 2.357 0 01-1.704.589 2.325 2.325 0 01-1.688-.59c-.416-.422-.635-1-.605-1.592v-6.878a3.583 3.583 0 00-.573-2.246 2.166 2.166 0 00-1.768-.7 3.025 3.025 0 00-2.309.923 3.376 3.376 0 00-.876 2.452v6.37c.03.592-.189 1.17-.605 1.592a2.325 2.325 0 01-1.687.59 2.357 2.357 0 01-1.704-.59 2.086 2.086 0 01-.637-1.592V67.548a1.959 1.959 0 01.669-1.593 2.484 2.484 0 011.703-.573 2.15 2.15 0 011.593.557c.396.382.61.915.589 1.465v.414a5.398 5.398 0 012.07-1.863 6.37 6.37 0 012.866-.637 4.968 4.968 0 013.981 1.64z"/><circle cx="35.494" cy="49.602" r="10.43" fill="#18A47D" opacity=".5"/><circle cx="25.064" cy="45.987" r="7.898" fill="#18A47D"/><path fill="#E7F6F2" d="M49.363 1.115a16.1 16.1 0 00-4.873.748 16.56 16.56 0 004.873 32.389c8.95-.278 16.063-7.614 16.063-16.569 0-8.955-7.112-16.29-16.063-16.568"/><path fill="#18A47D" d="M55.207 68.678a7.818 7.818 0 11-9.777-5.175 7.834 7.834 0 019.777 5.175z"/><path fill="#5DBFA4" d="M6.895 57.118a5.382 5.382 0 100 10.764 4.92 4.92 0 001.592-.239 5.382 5.382 0 00-1.592-10.525"/><path fill="#B9E4D8" d="M56.688 47.468a4.395 4.395 0 00-1.179.175 3.997 3.997 0 001.179 7.803c.4.003.797-.056 1.178-.175a3.997 3.997 0 00-1.178-7.803"/><path fill="#A3DBCB" d="M13.838 16.592a9.252 9.252 0 00-2.612.382 8.933 8.933 0 102.612-.382"/><path fill="#46B697" d="M65.589 10.446a6.847 6.847 0 10.023 13.694 6.847 6.847 0 00-.023-13.694"/><path fill="#18A47D" d="M73.55 51.099a2.245 2.245 0 01-.588-1.593V32.325a2.213 2.213 0 012.388-2.341 2.373 2.373 0 011.752.637c.436.457.666 1.073.637 1.704V47.77h7.834c1.48 0 2.23.652 2.23 1.958s-.75 1.927-2.23 1.927H75.207a2.197 2.197 0 01-1.656-.557zm27.915-13.185a6.752 6.752 0 011.592 4.904v6.911a2.07 2.07 0 01-.59 1.593 2.261 2.261 0 01-1.591.557 2.054 2.054 0 01-2.15-2.15v-.223a3.55 3.55 0 01-1.592 1.784 4.777 4.777 0 01-2.5.637 6.37 6.37 0 01-2.771-.605 4.904 4.904 0 01-1.959-1.72 4.363 4.363 0 01-.732-2.437 3.806 3.806 0 01.876-2.58 5.096 5.096 0 012.707-1.369 23.758 23.758 0 015.095-.43h.876v-.54a2.707 2.707 0 00-.557-1.88 2.58 2.58 0 00-1.959-.557 11.736 11.736 0 00-3.79.923c-.37.195-.777.309-1.194.335a1.29 1.29 0 01-1.067-.478 1.847 1.847 0 01-.398-1.242c-.025-.355.07-.708.27-1.003.23-.31.53-.561.876-.733a9.554 9.554 0 012.628-.987c.999-.22 2.018-.332 3.041-.334a6.64 6.64 0 014.889 1.624zm-3.647 9.936a3.31 3.31 0 00.908-2.34v-.526h-.51a10.669 10.669 0 00-3.471.398 1.45 1.45 0 00-1.003 1.433c-.018.528.19 1.038.573 1.401.386.354.894.542 1.417.526a2.77 2.77 0 002.086-.892zm20.096 3.105a6.497 6.497 0 01-2.675-2.69 8.599 8.599 0 01-.94-4.11 8.344 8.344 0 011.003-4.14 6.863 6.863 0 012.787-2.77 8.615 8.615 0 014.156-.971 9.395 9.395 0 012.468.334 7.962 7.962 0 012.213.956c.615.342.985 1 .956 1.703.017.463-.11.92-.366 1.306-.225.32-.596.506-.988.494a2.006 2.006 0 01-.748-.128l-.924-.414A11.146 11.146 0 00123.71 40a3.615 3.615 0 00-1.099-.191A3.185 3.185 0 00120 40.892a5.987 5.987 0 000 6.369 3.185 3.185 0 002.611 1.099 3.52 3.52 0 001.13-.16 8.67 8.67 0 001.195-.54l.908-.415c.235-.083.483-.126.732-.127.388 0 .751.19.971.51.266.388.4.85.383 1.32a1.847 1.847 0 01-.956 1.689 8.312 8.312 0 01-2.26.94 10.72 10.72 0 01-2.692.334 8.487 8.487 0 01-4.108-.956zm15.254 0a6.847 6.847 0 01-2.786-2.723 9.347 9.347 0 010-8.296 6.72 6.72 0 012.786-2.707 9.809 9.809 0 018.376 0 6.815 6.815 0 012.787 2.707 9.347 9.347 0 010 8.296 6.959 6.959 0 01-2.787 2.723 9.65 9.65 0 01-8.376 0zm7.548-6.863a5.032 5.032 0 00-.876-3.184 2.994 2.994 0 00-2.484-1.067c-2.245 0-3.36 1.433-3.36 4.315 0 2.882 1.115 4.3 3.36 4.3 2.246 0 3.36-1.482 3.36-4.348v-.016zm29.666-6.305a7.245 7.245 0 011.321 4.777v7.07a2.005 2.005 0 01-.637 1.592 2.468 2.468 0 01-1.592.541 2.564 2.564 0 01-1.592-.541 1.975 1.975 0 01-.669-1.592V42.58a3.185 3.185 0 00-.51-2.07 1.895 1.895 0 00-1.592-.59 2.564 2.564 0 00-2.038.876 3.678 3.678 0 00-.764 2.484v6.37a2.022 2.022 0 01-.653 1.592 2.404 2.404 0 01-1.593.541 2.532 2.532 0 01-1.592-.541 1.975 1.975 0 01-.669-1.592v-7.07a3.185 3.185 0 00-.51-2.07 1.895 1.895 0 00-1.592-.59 2.532 2.532 0 00-2.038.876 3.678 3.678 0 00-.764 2.484v6.37a1.975 1.975 0 01-.67 1.592 2.404 2.404 0 01-1.591.541 2.532 2.532 0 01-1.593-.541 1.975 1.975 0 01-.669-1.592V38.47a1.881 1.881 0 01.685-1.592 2.596 2.596 0 011.593-.542 2.293 2.293 0 011.592.526c.411.386.632.933.605 1.497v.302a5 5 0 011.91-1.783 5.812 5.812 0 012.676-.605c.955-.029 1.9.197 2.739.653a4.188 4.188 0 011.72 2.133 5.255 5.255 0 012.006-2.038 5.828 5.828 0 012.946-.748 4.777 4.777 0 013.535 1.513zm27.07 0a7.245 7.245 0 011.305 4.777v7.07a2.008 2.008 0 01-.636 1.592c-.981.72-2.316.72-3.297 0a1.943 1.943 0 01-.684-1.592V42.58a3.185 3.185 0 00-.494-2.07c-.412-.43-1-.648-1.592-.59a2.58 2.58 0 00-2.054.876 3.678 3.678 0 00-.765 2.484v6.37a2.005 2.005 0 01-.637 1.592 2.468 2.468 0 01-1.592.541 2.564 2.564 0 01-1.592-.541 1.975 1.975 0 01-.67-1.592v-7.07a3.185 3.185 0 00-.509-2.07 1.895 1.895 0 00-1.592-.59 2.564 2.564 0 00-2.038.876 3.678 3.678 0 00-.765 2.484v6.37a2.022 2.022 0 01-.653 1.592 2.484 2.484 0 01-1.592.541 2.532 2.532 0 01-1.592-.541 1.975 1.975 0 01-.669-1.592V38.47c-.045-.61.21-1.205.685-1.592a2.596 2.596 0 011.672-.542 2.293 2.293 0 011.592.526c.411.386.632.933.605 1.497v.302a5 5 0 011.91-1.783 5.812 5.812 0 012.676-.605c.955-.029 1.9.197 2.739.653a4.188 4.188 0 011.72 2.133 5.255 5.255 0 012.006-2.038 5.892 5.892 0 012.962-.748 4.777 4.777 0 013.55 1.513zm18.614-.844c.424.418.65.997.621 1.592V49.68a1.927 1.927 0 01-.652 1.593 2.5 2.5 0 01-1.704.573 2.134 2.134 0 01-1.593-.541c-.4-.38-.615-.915-.589-1.465v-.319a4.777 4.777 0 01-1.847 1.784 5.51 5.51 0 01-2.58.605 5.35 5.35 0 01-4.235-1.593 6.927 6.927 0 01-1.401-4.777v-7.006a2.102 2.102 0 01.636-1.592 2.404 2.404 0 011.688-.574 2.389 2.389 0 011.688.574c.413.424.632 1 .605 1.592v7.15c-.059.71.145 1.42.574 1.99a2.166 2.166 0 001.72.653 2.882 2.882 0 002.197-.924 3.44 3.44 0 00.828-2.42v-6.37a2.102 2.102 0 01.62-1.592 2.34 2.34 0 011.673-.573 2.42 2.42 0 011.751.494zm17.596.94a7.277 7.277 0 011.306 4.776v7.07a2.07 2.07 0 01-.621 1.593c-.469.4-1.073.605-1.688.573a2.357 2.357 0 01-1.688-.573c-.421-.42-.641-1-.605-1.593v-6.847a3.503 3.503 0 00-.574-2.23 2.084 2.084 0 00-1.751-.7 3.025 3.025 0 00-2.309.908 3.408 3.408 0 00-.876 2.452v6.37a2.12 2.12 0 01-.605 1.592 2.389 2.389 0 01-1.688.573 2.452 2.452 0 01-1.704-.573 2.07 2.07 0 01-.62-1.593v-11.21a1.99 1.99 0 01.652-1.592 2.5 2.5 0 011.704-.573 2.213 2.213 0 011.592.557c.397.382.611.915.59 1.465v.414a5.287 5.287 0 012.07-1.863 6.194 6.194 0 012.85-.637 4.92 4.92 0 013.965 1.64zm16.417.03a6.752 6.752 0 011.592 4.905v6.911a2.134 2.134 0 01-.589 1.593 2.261 2.261 0 01-1.592.557 2.022 2.022 0 01-2.166-2.134v-.223a3.55 3.55 0 01-1.592 1.784 4.777 4.777 0 01-2.5.637 6.37 6.37 0 01-2.77-.606 4.904 4.904 0 01-1.96-1.72 4.363 4.363 0 01-.716-2.436 3.738 3.738 0 01.844-2.611 5.048 5.048 0 012.707-1.37 23.758 23.758 0 015.096-.43h.796v-.54a2.707 2.707 0 00-.558-1.88 2.58 2.58 0 00-1.879-.573 11.91 11.91 0 00-3.805.924 2.85 2.85 0 01-1.179.334 1.338 1.338 0 01-1.082-.478 1.927 1.927 0 01-.399-1.242c-.02-.357.082-.71.287-1.003.23-.31.53-.561.876-.732a9.554 9.554 0 012.627-.924c1.02-.23 2.06-.348 3.105-.35a6.64 6.64 0 014.857 1.608zm-3.646 9.937a3.31 3.31 0 00.828-2.34v-.526h-.446a10.669 10.669 0 00-3.472.398 1.45 1.45 0 00-1.003 1.433c-.018.528.19 1.038.573 1.401.384.357.894.546 1.418.526a2.77 2.77 0 002.102-.892zm22.515-10.907c.435.412.667.994.637 1.592V49.68a1.927 1.927 0 01-.668 1.593 2.472 2.472 0 01-1.688.573 2.166 2.166 0 01-1.593-.541 1.943 1.943 0 01-.573-1.465v-.319a4.873 4.873 0 01-1.863 1.784 5.51 5.51 0 01-2.58.605 5.35 5.35 0 01-4.235-1.593 7.006 7.006 0 01-1.386-4.777v-7.006a2.102 2.102 0 01.621-1.592 2.42 2.42 0 011.704-.574 2.309 2.309 0 011.593.574 2.1 2.1 0 01.62 1.592v7.15a2.994 2.994 0 00.558 1.99 2.2 2.2 0 001.736.653 2.85 2.85 0 002.181-.924 3.44 3.44 0 00.844-2.42v-6.37a2.15 2.15 0 01.605-1.592 2.77 2.77 0 013.376 0l.111-.08zm13.87 12.022a1.688 1.688 0 01-.27 2.5 3.185 3.185 0 01-2.023.366h-.86c-3.567-.287-5.35-2.166-5.35-5.605v-6.099h-1.21a2.213 2.213 0 01-1.593-.446 1.592 1.592 0 01-.525-1.273 1.592 1.592 0 01.525-1.29 2.213 2.213 0 011.592-.446h1.21v-2.389c-.03-.598.203-1.18.638-1.592a2.77 2.77 0 013.375 0c.413.425.632 1 .605 1.592v2.341h2.15c1.385 0 2.07.573 2.07 1.736.031.48-.156.948-.51 1.274a2.34 2.34 0 01-1.592.446h-2.15v6.369a2.022 2.022 0 00.43 1.401 1.8 1.8 0 001.259.526h.86a2.15 2.15 0 011.369.589zm15.175-1.194c.265.364.4.807.382 1.258a1.59 1.59 0 01-.302.955c-.22.317-.516.574-.86.748-.764.395-1.571.7-2.405.908-.83.224-1.687.342-2.548.35a9.188 9.188 0 01-4.251-.94 6.672 6.672 0 01-2.803-2.706 9.172 9.172 0 010-8.217 7.102 7.102 0 012.628-2.77 7.468 7.468 0 013.821-.988 6.99 6.99 0 013.6.908 6.003 6.003 0 012.356 2.532 8.392 8.392 0 01.86 3.901c.03.368-.084.734-.319 1.02a1.13 1.13 0 01-.907.35h-8.551a4.06 4.06 0 001.098 2.611c.71.583 1.616.873 2.532.812a5.43 5.43 0 001.593-.207 13.121 13.121 0 001.592-.59l.828-.318c.224-.087.46-.135.7-.143.384.014.739.209.956.526zm-8.36-7.389a4.045 4.045 0 00-.94 2.436h5.892a4.045 4.045 0 00-.812-2.452 2.548 2.548 0 00-2.022-.812 2.803 2.803 0 00-2.118.764v.064zm2.086-5.446c-.31.009-.61-.112-.828-.334a1.099 1.099 0 01-.334-.796c.006-.287.1-.565.27-.797l2.628-3.519a2.23 2.23 0 011.847-1.035c.5-.003.98.192 1.337.542.366.33.574.798.574 1.29a2.086 2.086 0 01-.972 1.592l-3.726 2.723a1.37 1.37 0 01-.796.27v.064z"/></g></svg>