<svg xmlns="http://www.w3.org/2000/svg" preserveAspectRatio="xMinYMin meet" viewBox="0 0 249 81"><g fill="none"><path fill="#FFAD1D" d="M72.726 51.548a2.277 2.277 0 01-.573-1.593V32.774c-.03-.631.2-1.247.637-1.704a2.675 2.675 0 013.503 0c.437.457.667 1.073.637 1.704v15.59h7.85c1.497 0 2.245.652 2.245 1.958 0 1.29-.748 1.926-2.245 1.926H74.382a2.308 2.308 0 01-1.656-.7zm29.236-3.344c.267.363.402.807.382 1.258.005.343-.102.678-.303.955-.223.318-.518.58-.86.765a11.624 11.624 0 01-4.968 1.257 9.076 9.076 0 01-4.267-.955 6.608 6.608 0 01-2.803-2.723 8.169 8.169 0 01-.987-4.14 8.424 8.424 0 01.955-4.076 6.927 6.927 0 012.628-2.787 7.532 7.532 0 013.837-.987 6.99 6.99 0 013.6.907 6.051 6.051 0 012.404 2.564 8.455 8.455 0 01.923 3.917c.023.368-.09.73-.318 1.02a1.18 1.18 0 01-.908.35h-8.646c.04.978.43 1.91 1.098 2.627.718.58 1.627.87 2.548.812a5.43 5.43 0 001.592-.207 16.8 16.8 0 001.593-.589c.27-.127.557-.223.812-.318a2.2 2.2 0 01.716-.144c.385-.004.748.18.972.494zm-8.376-7.405a3.885 3.885 0 00-.955 2.437h5.923c0-.886-.29-1.748-.828-2.453a2.564 2.564 0 00-2.038-.828 2.77 2.77 0 00-2.102.844zm32.962-3.041a6.64 6.64 0 012.372 2.803c.583 1.29.87 2.693.844 4.108a9.395 9.395 0 01-.844 4.092 6.48 6.48 0 01-2.356 2.787 6.258 6.258 0 01-3.456.955c-.96.009-1.91-.21-2.77-.637a4.602 4.602 0 01-1.911-1.831v5.796a1.927 1.927 0 01-.605 1.481 2.357 2.357 0 01-1.593.542 2.564 2.564 0 01-1.735-.574 1.943 1.943 0 01-.653-1.592V39a2.086 2.086 0 01.62-1.592 2.309 2.309 0 011.593-.59 2.261 2.261 0 011.592.59c.421.419.642.999.606 1.592v.255a4.777 4.777 0 011.942-1.831 6.035 6.035 0 012.819-.653 6.178 6.178 0 013.535.987zm-2.277 10.064a4.889 4.889 0 00.891-3.185 5.239 5.239 0 00-.891-3.185 2.994 2.994 0 00-2.516-1.146 3.09 3.09 0 00-2.516 1.114 5.096 5.096 0 00-.892 3.185 5 5 0 00.892 3.185 3.041 3.041 0 002.516 1.114 3.09 3.09 0 002.516-1.082zm8.71-14.077a2.134 2.134 0 01-.7-1.704 2.102 2.102 0 01.7-1.687 2.882 2.882 0 011.927-.606 2.818 2.818 0 011.91.621c.465.4.732.98.733 1.593a2.15 2.15 0 01-.717 1.704 3.185 3.185 0 01-3.853 0v.08zm.255 18.073a2.022 2.022 0 01-.653-1.592V39.08a1.975 1.975 0 01.669-1.593 2.532 2.532 0 011.592-.541 2.452 2.452 0 011.592.541c.456.4.702.987.67 1.593v11.146a1.975 1.975 0 01-.67 1.592 2.468 2.468 0 01-1.592.558 2.548 2.548 0 01-1.608-.558zm8.184 0a2.022 2.022 0 01-.652-1.592V32.71a2.022 2.022 0 01.652-1.592 2.549 2.549 0 011.593-.558 2.47 2.47 0 011.592.558c.456.4.702.987.669 1.592v17.516a1.975 1.975 0 01-.669 1.592 2.47 2.47 0 01-1.592.558 2.55 2.55 0 01-1.593-.558zm10.574-.27a6.8 6.8 0 01-2.803-2.723 9.379 9.379 0 010-8.312 6.704 6.704 0 012.803-2.723 8.965 8.965 0 014.188-.94 9.092 9.092 0 014.203.94 6.656 6.656 0 012.787 2.611 9.236 9.236 0 010 8.312 6.752 6.752 0 01-2.787 2.835 8.901 8.901 0 01-4.203.971 8.79 8.79 0 01-4.188-.971zm7.563-6.88a5.032 5.032 0 00-.875-3.184 3.025 3.025 0 00-2.5-1.083c-2.246 0-3.36 1.45-3.36 4.331 0 2.883 1.114 4.316 3.36 4.316 2.245 0 3.375-1.577 3.375-4.459v.08zm16.99 4.794a1.704 1.704 0 01-.286 2.516 3.28 3.28 0 01-2.022.366h-.86c-3.567-.287-5.35-2.155-5.35-5.605v-6.147h-1.242a2.277 2.277 0 01-1.593-.446 1.592 1.592 0 01-.51-1.257c-.04-.491.148-.973.51-1.306a2.277 2.277 0 011.593-.446h1.242v-2.389c-.026-.594.2-1.172.62-1.592a2.42 2.42 0 011.705-.573 2.389 2.389 0 011.687.573c.411.426.63 1.001.605 1.592v2.469h2.15c1.386 0 2.086.573 2.086 1.751.022.477-.17.939-.525 1.258a2.309 2.309 0 01-1.593.446h-2.15v6.37c-.037.499.117.994.43 1.385.331.34.784.535 1.259.541h.86c.506-.01.999.165 1.385.494zm13.822-11.083a6.704 6.704 0 011.593 4.92v6.927a2.134 2.134 0 01-.573 1.592 2.245 2.245 0 01-1.593.574 2.197 2.197 0 01-1.592-.605 2.07 2.07 0 01-.59-1.593v-.239a3.551 3.551 0 01-1.592 1.784 4.777 4.777 0 01-2.516.653 6.067 6.067 0 01-2.77-.621 4.936 4.936 0 01-1.975-1.72 4.379 4.379 0 01-.716-2.452 3.774 3.774 0 01.844-2.596 5 5 0 012.707-1.385 24.076 24.076 0 015.127-.43h.796v-.557a2.102 2.102 0 00-2.452-2.453c-1.31.104-2.594.416-3.806.924a2.85 2.85 0 01-1.194.334A1.306 1.306 0 01179 40.96a1.8 1.8 0 01-.398-1.242c.027-.328.143-.641.334-.908a2.5 2.5 0 01.892-.733 9.554 9.554 0 012.611-.923 14.49 14.49 0 013.058-.335 6.592 6.592 0 014.872 1.561zm-3.646 9.984a3.328 3.328 0 00.828-2.357v-.51h-.526a10.303 10.303 0 00-3.47.399 1.417 1.417 0 00-1.004 1.433c-.018.528.19 1.038.573 1.401.386.354.895.542 1.417.526a2.85 2.85 0 002.182-.892zm23.44-10.94c.424.418.65.998.62 1.593v11.56a7.022 7.022 0 01-2.101 5.526 9.14 9.14 0 01-6.195 1.815 11.656 11.656 0 01-5.653-1.226 2.484 2.484 0 01-.86-.748 1.815 1.815 0 01-.302-1.004 2.102 2.102 0 01.366-1.257c.232-.31.6-.488.987-.478.27.001.54.044.797.127l.955.319c.588.23 1.189.427 1.8.589.582.15 1.181.224 1.783.223a4.172 4.172 0 002.914-.892 3.551 3.551 0 00.955-2.707v-1.592a4.538 4.538 0 01-1.942 1.847 6.146 6.146 0 01-2.883.669 6.608 6.608 0 01-3.47-.908 6.37 6.37 0 01-2.39-2.627 9.554 9.554 0 010-7.883 6.37 6.37 0 015.86-3.566 6.146 6.146 0 012.835.652 4.777 4.777 0 011.958 1.832v-.319a1.99 1.99 0 01.621-1.592 2.436 2.436 0 011.672-.558 2.309 2.309 0 011.672.606zm-4.873 9.762a4.252 4.252 0 00.907-2.914 4.315 4.315 0 00-.907-2.914 3.185 3.185 0 00-2.532-1.067 3.185 3.185 0 00-2.548 1.067 4.315 4.315 0 00-.923 2.914 4.268 4.268 0 00.923 2.914 3.185 3.185 0 002.548 1.05c.96.05 1.89-.336 2.532-1.05zm22.134 1.019c.267.363.402.807.382 1.258.004.343-.102.678-.303.955-.224.318-.518.58-.86.765-.77.391-1.582.696-2.42.907a10.91 10.91 0 01-2.548.35 9.14 9.14 0 01-4.283-.955 6.704 6.704 0 01-2.803-2.723 8.328 8.328 0 01-.971-4.14 8.424 8.424 0 01.94-4.076 6.959 6.959 0 012.595-2.787 7.468 7.468 0 013.822-.987 7.038 7.038 0 013.614.907 6.147 6.147 0 012.405 2.564 8.455 8.455 0 01.86 3.917c.022.368-.091.73-.319 1.02a1.18 1.18 0 01-.908.35h-8.582c.04.978.43 1.91 1.098 2.627a3.63 3.63 0 002.548.812 5.51 5.51 0 001.592-.207c.462-.143.988-.35 1.593-.589.286-.127.557-.223.828-.318.223-.088.46-.136.7-.144.402-.017.784.168 1.02.494zm-8.392-7.405a3.965 3.965 0 00-.94 2.437H224a4.045 4.045 0 00-.812-2.453 2.548 2.548 0 00-2.038-.828 2.818 2.818 0 00-2.118.844z"/><path fill="#000638" d="M83.618 63.076a.908.908 0 01.27.67v15.206a.94.94 0 01-.27.7.971.971 0 01-.717.272.908.908 0 01-.7-.271.924.924 0 01-.255-.7v-1.29a3.742 3.742 0 01-1.592 1.703 4.57 4.57 0 01-2.373.605 4.777 4.777 0 01-2.707-.764 5.127 5.127 0 01-1.768-2.182 7.43 7.43 0 01-.652-3.184 7.309 7.309 0 01.652-3.185 4.91 4.91 0 011.816-2.102 4.968 4.968 0 012.707-.748 4.57 4.57 0 012.372.605 3.822 3.822 0 011.593 1.704v-6.37a.908.908 0 01.254-.684 1.083 1.083 0 011.418 0l-.048.015zm-2.596 14.125a5.111 5.111 0 00.924-3.36 5.048 5.048 0 00-.924-3.185 3.185 3.185 0 00-2.611-1.146 3.185 3.185 0 00-2.643 1.146 4.889 4.889 0 00-.956 3.185 5.16 5.16 0 00.956 3.312 3.185 3.185 0 002.643 1.178c1 .055 1.967-.364 2.611-1.13zm15.924.111a.78.78 0 01.19.542c0 .414-.27.764-.827 1.098-.57.342-1.187.6-1.831.765a7.707 7.707 0 01-1.863.254 5.717 5.717 0 01-4.268-1.592 6.035 6.035 0 01-1.592-4.427 6.975 6.975 0 01.684-3.184 5.223 5.223 0 011.96-2.15 5.334 5.334 0 012.85-.764 4.602 4.602 0 013.614 1.496 5.764 5.764 0 011.338 4.013c.018.249-.049.496-.191.7a.796.796 0 01-.621.208h-7.676c.144 2.739 1.45 4.124 3.902 4.124.541.006 1.08-.08 1.592-.255a11.48 11.48 0 001.433-.685c.255-.176.541-.3.844-.366.18 0 .35.082.462.223zm-7.086-6.99a4.347 4.347 0 00-1.099 2.707h6.784a4.283 4.283 0 00-.892-2.723 2.994 2.994 0 00-2.34-.94 3.185 3.185 0 00-2.453.956zm19.427 9.108a1.975 1.975 0 01-.67-1.592V60.322a1.975 1.975 0 01.67-1.593 2.723 2.723 0 013.296 0c.455.4.702.987.669 1.593v17.516a1.975 1.975 0 01-.67 1.592c-.973.74-2.321.74-3.295 0zm11.592-20.526c.535.731.795 1.628.732 2.532a7.818 7.818 0 01-2.308 5.574 1.242 1.242 0 01-.876.461 1.306 1.306 0 01-.908-.35 1.067 1.067 0 01-.398-.844c.003-.299.123-.584.334-.796a5.717 5.717 0 001.354-2.293 2.516 2.516 0 01-1.688-.78 2.373 2.373 0 01-.653-1.704 2.643 2.643 0 01.717-1.895 2.436 2.436 0 011.8-.748c.726-.02 1.422.29 1.894.843zm4.3 2.453a2.134 2.134 0 01-.701-1.704 2.102 2.102 0 01.7-1.736 2.882 2.882 0 011.927-.605 2.818 2.818 0 011.91.621c.487.417.757 1.032.733 1.672a2.15 2.15 0 01-.716 1.704 3.296 3.296 0 01-3.854 0v.048zm.254 18.073a2.022 2.022 0 01-.653-1.592V66.69a1.975 1.975 0 01.669-1.592 2.532 2.532 0 011.592-.542 2.452 2.452 0 011.593.542c.455.4.702.987.669 1.592v11.147a1.975 1.975 0 01-.67 1.592 2.468 2.468 0 01-1.592.557 2.548 2.548 0 01-1.608-.557zm20.987-13.471a7.325 7.325 0 011.322 4.777v7.086a2.022 2.022 0 01-.637 1.592 2.325 2.325 0 01-1.688.59 2.293 2.293 0 01-1.688-.59 2.07 2.07 0 01-.62-1.592v-6.88a3.694 3.694 0 00-.558-2.245 2.166 2.166 0 00-1.768-.7 3.057 3.057 0 00-2.324.923 3.44 3.44 0 00-.86 2.453v6.369a2.07 2.07 0 01-.621 1.592 2.325 2.325 0 01-1.688.59 2.389 2.389 0 01-1.704-.59 2.07 2.07 0 01-.621-1.592V66.548a1.99 1.99 0 01.653-1.593 2.532 2.532 0 011.704-.573 2.118 2.118 0 011.592.557c.403.38.623.913.605 1.465v.414a5.287 5.287 0 012.07-1.863 6.226 6.226 0 012.866-.637 4.92 4.92 0 013.965 1.64zm7.66 13.137a6.449 6.449 0 01-2.676-2.707 8.599 8.599 0 01-.939-4.109 8.455 8.455 0 011.003-4.156 6.91 6.91 0 012.803-2.77 8.63 8.63 0 014.172-.972 9.554 9.554 0 012.468.335 7.962 7.962 0 012.213.955c.615.342.984 1.001.956 1.704.02.463-.109.92-.367 1.306a1.162 1.162 0 01-.987.51c-.256 0-.51-.05-.748-.144a9.124 9.124 0 01-.94-.414 8.28 8.28 0 00-1.146-.51 3.185 3.185 0 00-1.147-.19 3.185 3.185 0 00-2.627 1.082 6.13 6.13 0 000 6.37 3.185 3.185 0 002.627 1.098c.383.01.765-.044 1.13-.16.412-.15.81-.331 1.195-.54l.924-.415c.232-.096.48-.145.732-.143.392-.002.759.196.971.526.268.387.402.85.383 1.321a1.83 1.83 0 01-.956 1.688 8.312 8.312 0 01-2.26.94c-.88.23-1.784.347-2.692.35a8.44 8.44 0 01-4.092-.955zm12.93.334c-.45-.403-.69-.99-.653-1.592V60.322a1.975 1.975 0 01.653-1.593 2.548 2.548 0 011.592-.557 2.5 2.5 0 011.592.557c.444.407.683.991.653 1.593v17.516a2.022 2.022 0 01-.653 1.592 2.5 2.5 0 01-1.592.557 2.55 2.55 0 01-1.592-.557zm21.48-14.41c.424.418.65.997.621 1.591V77.87a1.942 1.942 0 01-.652 1.593 2.436 2.436 0 01-1.704.589 2.182 2.182 0 01-1.593-.557c-.4-.38-.615-.915-.589-1.465v-.319a4.777 4.777 0 01-1.847 1.784 6.178 6.178 0 01-6.847-.972 7.022 7.022 0 01-1.385-4.777v-7.134a2.102 2.102 0 01.62-1.592 2.452 2.452 0 011.704-.573 2.389 2.389 0 011.688.573c.424.419.65.998.621 1.592v7.23c-.06.709.138 1.416.558 1.99.456.457 1.091.69 1.735.637a2.898 2.898 0 002.198-.907 3.52 3.52 0 00.844-2.437v-6.513a2.086 2.086 0 01.605-1.592 2.389 2.389 0 011.688-.573c.63-.04 1.252.165 1.735.573zm6.561 14.712a7.34 7.34 0 01-2.42-.97 1.91 1.91 0 01-.717-.75 2.197 2.197 0 01-.239-.987 1.736 1.736 0 01.398-1.178c.237-.304.602-.48.988-.478.271.003.54.051.796.144.254.095.541.19.828.318a9.49 9.49 0 001.688.621 7.373 7.373 0 002.038.24 3.455 3.455 0 001.672-.335c.36-.169.594-.526.605-.924a.955.955 0 00-.255-.685 2.484 2.484 0 00-.971-.477c-.478-.144-1.21-.319-2.245-.526a8.567 8.567 0 01-3.918-1.592 3.678 3.678 0 01-1.194-2.914c-.006-.9.291-1.775.844-2.484a5.605 5.605 0 012.309-1.736 8.471 8.471 0 013.312-.62c.87-.002 1.738.11 2.58.333a7.85 7.85 0 012.229.956c.615.342.984 1.001.955 1.704.02.443-.12.879-.398 1.226a1.194 1.194 0 01-.971.493 3.424 3.424 0 01-1.688-.557c-.452-.23-.92-.427-1.401-.589a5.111 5.111 0 00-1.481-.207 2.755 2.755 0 00-1.513.366 1.099 1.099 0 00.096 1.943 10.16 10.16 0 002.484.669 13.44 13.44 0 013.184.971c.688.3 1.274.792 1.688 1.417a4.14 4.14 0 01.526 2.182 4.076 4.076 0 01-1.8 3.471 7.962 7.962 0 01-4.777 1.29 14.857 14.857 0 01-3.232-.335zm12.866-18.375a2.182 2.182 0 01-.7-1.704 2.15 2.15 0 01.7-1.736 2.93 2.93 0 011.943-.605 2.818 2.818 0 011.91.621 2.15 2.15 0 01.717 1.672 2.182 2.182 0 01-.7 1.704 3.328 3.328 0 01-3.87 0v.048zm.27 18.073a1.975 1.975 0 01-.668-1.592V66.69a1.943 1.943 0 01.685-1.592 2.532 2.532 0 011.592-.542 2.49 2.49 0 011.593.542c.443.407.683.99.652 1.592v11.147a2.022 2.022 0 01-.652 1.592 2.739 2.739 0 01-3.313 0h.112zm10.558-.35a6.8 6.8 0 01-2.786-2.74 8.344 8.344 0 01-.988-4.14 8.44 8.44 0 01.988-4.155 6.656 6.656 0 012.786-2.723 9.873 9.873 0 018.408 0 6.752 6.752 0 012.739 2.723 8.44 8.44 0 01.971 4.156 8.328 8.328 0 01-.971 4.14 6.895 6.895 0 01-2.787 2.739 9.554 9.554 0 01-8.408 0h.048zm7.58-6.832a5.111 5.111 0 00-.876-3.184 3.057 3.057 0 00-2.5-1.083c-2.245 0-3.376 1.449-3.376 4.331 0 2.882 1.13 4.315 3.376 4.315 2.245 0 3.376-1.544 3.376-4.379zm20.876-6.29a7.325 7.325 0 011.305 4.778v7.086a2.07 2.07 0 01-.62 1.592 2.357 2.357 0 01-1.704.59 2.325 2.325 0 01-1.688-.59c-.416-.423-.636-1-.605-1.592v-6.88a3.583 3.583 0 00-.574-2.245 2.166 2.166 0 00-1.767-.7 3.025 3.025 0 00-2.31.923 3.376 3.376 0 00-.875 2.453v6.369c.03.592-.19 1.17-.605 1.592a2.325 2.325 0 01-1.688.59 2.357 2.357 0 01-1.704-.59 2.086 2.086 0 01-.637-1.592V66.548a1.959 1.959 0 01.67-1.593 2.484 2.484 0 011.703-.573 2.15 2.15 0 011.592.557c.397.382.611.915.59 1.465v.414a5.398 5.398 0 012.07-1.863 6.37 6.37 0 012.866-.637 4.968 4.968 0 013.98 1.64z"/><path fill="#FFD68E" d="M34.494 38.172a10.288 10.288 0 00-3.074.462 10.43 10.43 0 106.131 19.936 10.43 10.43 0 00-3.057-20.398"/><path fill="#FFAD1D" d="M31.611 42.662a7.962 7.962 0 11-15.18 4.81 7.962 7.962 0 0115.18-4.81zm22.596 25.016a7.818 7.818 0 11-9.777-5.175 7.834 7.834 0 019.777 5.175z"/><path fill="#FFC560" d="M5.895 56.118a5.382 5.382 0 10-.014 10.764 5.382 5.382 0 00.014-10.764"/><path fill="#FFEDBA" d="M55.688 46.468a4.395 4.395 0 00-1.178.175 3.997 3.997 0 001.178 7.803c.4.003.797-.056 1.178-.175a3.997 3.997 0 00-1.178-7.803"/><path fill="#FFDEA5" d="M12.838 15.592a9.252 9.252 0 00-2.612.383 8.933 8.933 0 102.612-.383"/><path fill="#FFF7E8" d="M48.363.115a16.1 16.1 0 00-4.873.748 16.56 16.56 0 004.873 32.389c8.95-.278 16.063-7.614 16.063-16.569 0-8.955-7.112-16.29-16.063-16.568"/><path fill="#FFBD4A" d="M64.59 9.446a6.847 6.847 0 10.023 13.694 6.847 6.847 0 00-.024-13.694"/></g></svg>