<svg xmlns="http://www.w3.org/2000/svg" preserveAspectRatio="xMinYMin meet" viewBox="0 0 248 80">
  <g fill="none" transform="translate(-1 -1)">
    <path fill="#006ADC" d="M75.3025478 52.3566879C74.9022911 51.9253255 74.6902838 51.3523326 74.7133758 50.7643312L74.7133758 33.5828025C74.6688351 32.9408576 74.9079104 32.3116476 75.367498 31.8612517 75.8270856 31.4108558 76.4609965 31.1845394 77.1019108 31.2420382 77.7436418 31.2052801 78.3719535 31.4358532 78.8375796 31.8789809 79.2740883 32.3358411 79.5042909 32.9516331 79.4745223 33.5828025L79.4745223 49.044586 87.3089172 49.044586C88.7898089 49.044586 89.5382166 49.6974522 89.5382166 51.0031847 89.5382166 52.3089172 88.7898089 52.9299363 87.3089172 52.9299363L76.9426752 52.9299363C76.3406857 52.9703823 75.7482748 52.7633261 75.3025478 52.3566879L75.3025478 52.3566879zM104.426752 48.9649682C104.694125 49.3222344 104.829201 49.7612302 104.808917 50.2070064 104.816996 50.555158 104.71072 50.8963589 104.506369 51.1783439 104.277215 51.4870371 103.983851 51.7423723 103.646497 51.9267516 102.885009 52.322367 102.077344 52.6218984 101.242038 52.8184713 100.411016 53.0425298 99.5549227 53.1602425 98.6942675 53.1687898 97.2215236 53.2084609 95.7615723 52.88585 94.4426752 52.2292994 93.259382 51.6267204 92.2833708 50.6839823 91.6401274 49.522293 90.9635207 48.2495634 90.62883 46.8230127 90.6687898 45.3821656 90.6565657 43.9988803 90.9788813 42.6331361 91.6082803 41.4012739 92.2147193 40.2551724 93.1233594 39.2969701 94.2356688 38.6305732 95.3985543 37.9661646 96.71814 37.6252716 98.0573248 37.6433121 99.3145259 37.6181873 100.556031 37.925817 101.656051 38.5350318 102.682934 39.1483048 103.511999 40.0436955 104.044586 41.1146497 104.640967 42.3212535 104.936013 43.6544269 104.904459 45 104.928716 45.3674853 104.815173 45.730824 104.585987 46.0191083 104.352084 46.2688182 104.020048 46.4027977 103.678344 46.3853503L95.1273885 46.3853503C95.1723926 47.3585816 95.5618064 48.284145 96.2261146 48.9968153 96.9378013 49.5750901 97.8433978 49.8598689 98.7579618 49.7929936 99.2960732 49.8032892 99.8327253 49.7335245 100.350318 49.5859873 100.812102 49.4426752 101.33758 49.2515924 101.942675 49.0127389L102.770701 48.6783439C102.996688 48.6015686 103.232788 48.5586412 103.471338 48.5509554 103.836816 48.5331308 104.189837 48.6861063 104.426752 48.9649682L104.426752 48.9649682zM96.066879 41.5764331C95.4876185 42.2591644 95.1564897 43.1178546 95.1273885 44.0127389L101.019164 44.0127389C101.023735 43.1285344 100.738479 42.2671744 100.207006 41.5605096 99.6901835 40.9966419 98.9485806 40.6929934 98.1847134 40.7324841 97.3914182 40.7029953 96.6224698 41.0094183 96.066879 41.5764331zM110.127389 52.866242C109.275003 52.6864278 108.461036 52.3576067 107.72293 51.8949045 107.42378 51.7180545 107.176603 51.4653847 107.006369 51.1624204 106.841995 50.8369098 106.75998 50.4760462 106.767516 50.111465 106.749462 49.6877388 106.891583 49.2727446 107.165605 48.9490446 107.397765 48.6477709 107.756595 48.4712971 108.136943 48.4713376 108.407227 48.4735752 108.675632 48.51652 108.933121 48.5987261L109.761146 48.933121C110.308545 49.1793913 110.872566 49.3869083 111.449045 49.5541401 112.114897 49.7222073 112.800821 49.7972303 113.487261 49.7770701 114.037097 49.7939442 114.583017 49.6793011 115.079618 49.4426752 115.436335 49.2810617 115.666395 48.9266442 115.66879 48.5350318 115.685549 48.2808822 115.592828 48.0316962 115.414013 47.8503185 115.131368 47.6183648 114.798938 47.4548747 114.442675 47.3726115 113.980892 47.2292994 113.232484 47.0541401 112.213376 46.8471338 110.797951 46.6595515 109.454525 46.1112141 108.312102 45.2547771 107.496019 44.5192089 107.056918 43.4536572 107.117834 42.3566879 107.112731 41.462333 107.41015 40.5925222 107.961783 39.888535 108.588968 39.1220684 109.415475 38.543514 110.350318 38.2165605 111.395556 37.7881468 112.517024 37.5768558 113.646497 37.5955414 114.52128 37.5805616 115.394154 37.6823076 116.242038 37.8980892 117.026978 38.1008614 117.77803 38.4173763 118.471338 38.8375796 119.08575 39.1876504 119.454117 39.8507111 119.426752 40.5573248 119.433743 40.998874 119.293699 41.4302112 119.028662 41.7834395 118.79151 42.087218 118.426779 42.2637007 118.041401 42.2611465 117.474919 42.2107979 116.928817 42.0251231 116.449045 41.7197452 115.999771 41.4790606 115.531023 41.2766466 115.047771 41.1146497 114.566295 40.9781253 114.06724 40.9137311 113.566879 40.9235669 113.044728 40.8950519 112.525328 41.0166137 112.070064 41.2738854 111.729512 41.470434 111.522272 41.8361501 111.528662 42.2292994 111.524332 42.6561815 111.77489 43.0445465 112.165605 43.2165605 112.957034 43.5420741 113.786258 43.7667669 114.633758 43.8853503 115.728802 44.07918 116.797565 44.3998087 117.818471 44.8407643 118.476548 45.1546253 119.029621 45.6523909 119.410828 46.2738854 119.783728 46.9329363 119.965686 47.6828274 119.936306 48.4394904 119.973836 49.8209463 119.300658 51.1252278 118.152866 51.8949045 116.736035 52.8157012 115.062988 53.261847 113.375796 53.1687898 112.285224 53.1860913 111.196008 53.0846447 110.127389 52.866242L110.127389 52.866242zM144.124204 48.9649682C144.391577 49.3222344 144.526653 49.7612302 144.506369 50.2070064 144.514448 50.555158 144.408173 50.8963589 144.203822 51.1783439 143.974667 51.4870371 143.681303 51.7423723 143.343949 51.9267516 142.577972 52.3248351 141.764726 52.624452 140.923567 52.8184713 140.098183 53.0435823 139.247218 53.1613259 138.39172 53.1687898 136.918976 53.2084609 135.459025 52.88585 134.140127 52.2292994 132.953946 51.6307781 131.976868 50.6870096 131.33758 49.522293 130.064785 46.9369071 130.064785 43.907042 131.33758 41.3216561 131.944019 40.1755546 132.852659 39.2173523 133.964968 38.5509554 135.126361 37.8828817 136.44697 37.5417245 137.786624 37.5636943 139.038965 37.5368128 140.27579 37.8446448 141.369427 38.455414 142.404501 39.063435 143.240028 39.9598273 143.773885 41.0350318 144.370266 42.2416357 144.665313 43.5748091 144.633758 44.9203822 144.658016 45.2878675 144.544472 45.6512062 144.315287 45.9394904 144.078955 46.185633 143.74862 46.318926 143.407643 46.3057325L134.856688 46.3057325C134.901692 47.2789637 135.291106 48.2045271 135.955414 48.9171975 136.667101 49.4954723 137.572697 49.7802511 138.487261 49.7133758 139.025308 49.7225075 139.56179 49.6527649 140.079618 49.5063694 140.541401 49.3630573 141.066879 49.1719745 141.671975 48.933121L142.484076 48.5987261C142.715864 48.5232271 142.95703 48.480353 143.200637 48.4713376 143.568713 48.4825291 143.910393 48.6651513 144.124204 48.9649682L144.124204 48.9649682zM135.764331 41.5764331C135.185071 42.2591644 134.853942 43.1178546 134.824841 44.0127389L140.716616 44.0127389C140.721187 43.1285344 140.435932 42.2671744 139.904459 41.5605096 139.387636 40.9966419 138.646033 40.6929934 137.882166 40.7324841 137.088176 40.6989459 136.317641 41.0060014 135.764331 41.5764331zM169.617834 39.044586C170.608809 40.4308475 171.077019 42.1231754 170.93949 43.8216561L170.93949 50.955414C170.967376 51.5533231 170.735092 52.1340336 170.302548 52.5477707 169.853032 52.9136189 169.28974 53.110771 168.710191 53.1052147 168.13173 53.1042873 167.570543 52.907872 167.117834 52.5477707 166.662279 52.1477965 166.415708 51.5607228 166.449045 50.955414L166.449045 43.8216561C166.518325 43.0988757 166.33854 42.3741213 165.93949 41.7675159 165.534391 41.3251604 164.943773 41.1007254 164.347134 41.1624204 163.562378 41.1314707 162.806265 41.4597057 162.292994 42.0541401 161.708972 42.7642382 161.413395 43.668022 161.464968 44.5859873L161.464968 50.955414C161.501636 51.5547702 161.267927 52.139042 160.828025 52.5477707 160.37851 52.9136189 159.815218 53.110771 159.235669 53.1052147 158.657207 53.1042873 158.096021 52.907872 157.643312 52.5477707 157.187757 52.1477965 156.941186 51.5607228 156.974522 50.955414L156.974522 43.8216561C157.048494 43.1007218 156.874364 42.3761187 156.480892 41.7675159 156.071551 41.3314522 155.484167 41.1082463 154.888535 41.1624204 154.103779 41.1314707 153.347666 41.4597057 152.834395 42.0541401 152.288233 42.7566821 152.016535 43.6340402 152.070064 44.522293L152.070064 50.8917197C152.100421 51.4932424 151.861083 52.0769933 151.417197 52.4840764 150.455609 53.2711255 149.080171 53.2974497 148.089172 52.5477707 147.623666 52.1538679 147.370129 51.5642461 147.404459 50.955414L147.404459 39.8089172C147.367583 39.1996379 147.62159 38.6089228 148.089172 38.2165605 148.545154 37.8643577 149.105365 37.6738862 149.681529 37.6751592 150.260473 37.6364154 150.831712 37.8249241 151.273885 38.2006369 151.688037 38.5781432 151.910264 39.1220168 151.878981 39.6815287L151.878981 39.9840764C152.351595 39.2389401 153.01016 38.6297675 153.789809 38.2165605 154.621711 37.8077894 155.538127 37.6005049 156.464968 37.611465 157.425958 37.5626143 158.382539 37.7715227 159.235669 38.2165605 160.027602 38.7126123 160.632477 39.4575044 160.955414 40.3343949 161.42787 39.4903952 162.121545 38.7912152 162.961783 38.3121019 163.861102 37.8085815 164.877046 37.5504769 165.907643 37.5636943 167.301313 37.4916987 168.656779 38.0327217 169.617834 39.044586L169.617834 39.044586zM187.149682 38.5509554C188.182853 39.261597 188.994264 40.2496408 189.490446 41.4012739 190.072575 42.6912895 190.360836 44.0945222 190.334395 45.5095541 190.353027 46.8930609 190.064799 48.2635014 189.490446 49.522293 188.480553 51.8041264 186.188392 53.2461727 183.694268 53.1687898 182.734766 53.1820591 181.78561 52.9693172 180.923567 52.5477707 180.137301 52.1573091 179.479627 51.5493754 179.028662 50.7961783L179.028662 56.5605096C179.053372 57.1175335 178.825146 57.6559132 178.407643 58.0254777 177.968634 58.409724 177.398096 58.6094126 176.815287 58.5828025 176.191146 58.6090147 175.579127 58.4050083 175.095541 58.0095541 174.641856 57.6093742 174.400493 57.0206829 174.442675 56.4171975L174.442675 39.8089172C174.412747 39.2137957 174.638757 38.6342846 175.063694 38.2165605 175.500387 37.8250585 176.069701 37.6144123 176.656051 37.6273885 177.243772 37.6060524 177.816115 37.8178193 178.248408 38.2165605 178.673345 38.6342846 178.899355 39.2137957 178.869427 39.8089172L178.869427 40.0477707C179.355445 39.2514373 180.064002 38.6148433 180.907643 38.2165605 181.775082 37.7749485 182.736894 37.5508898 183.710191 37.5636943 184.928974 37.546293 186.125673 37.88979 187.149682 38.5509554L187.149682 38.5509554zM184.872611 48.5828025C185.53204 47.6576524 185.847459 46.5311551 185.764331 45.3980892 185.821072 44.2678215 185.508036 43.1498371 184.872611 42.2133758 184.274543 41.4483657 183.342569 41.0209639 182.372611 41.066879 181.400972 41.0172929 180.464769 41.4379918 179.856688 42.1974522 178.681487 44.1579702 178.681487 46.606361 179.856688 48.566879 180.501957 49.2683631 181.411522 49.6675414 182.36465 49.6675414 183.317777 49.6675414 184.227342 49.2683631 184.872611 48.566879L184.872611 48.5828025zM193.805732 52.5477707C193.361847 52.1406876 193.122509 51.5569366 193.152866 50.955414L193.152866 33.4394904C193.122509 32.8379678 193.361847 32.2542169 193.805732 31.8471338 194.259932 31.491623 194.821322 31.3007504 195.398089 31.3057325 195.97568 31.2955556 196.53876 31.4870025 196.990446 31.8471338 197.434331 32.2542169 197.673669 32.8379678 197.643312 33.4394904L197.643312 50.955414C197.673669 51.5569366 197.434331 52.1406876 196.990446 52.5477707 196.540271 52.9124385 195.977418 53.1094371 195.398089 53.1051658 194.819413 53.1055477 194.257823 52.908991 193.805732 52.5477707L193.805732 52.5477707zM204.33121 52.2133758C203.159706 51.5983095 202.195855 50.6510767 201.56051 49.4904459 200.243748 46.8874087 200.243748 43.8132283 201.56051 41.2101911 202.200594 40.0571686 203.163616 39.116285 204.33121 38.5031847 206.982798 37.251255 210.055419 37.251255 212.707006 38.5031847 213.882151 39.1114691 214.851547 40.0531682 215.493631 41.2101911 216.787755 43.8185816 216.787755 46.8820553 215.493631 49.4904459 214.857137 50.6557151 213.886679 51.6039916 212.707006 52.2133758 210.060602 53.4882139 206.977615 53.4882139 204.33121 52.2133758L204.33121 52.2133758zM211.878981 45.3503185C211.953411 44.2227697 211.650929 43.1024659 211.019108 42.1656051 210.401536 41.4328015 209.47609 41.0319714 208.519108 41.0828025 206.289809 41.0828025 205.159236 42.5318471 205.159236 45.3980892 205.159236 48.2643312 206.289809 49.7133758 208.519108 49.7133758 210.748408 49.7133758 211.878981 48.2324841 211.878981 45.3503185zM219.745223 34.5541401C219.265903 34.1214694 219.008296 33.495016 219.044586 32.8503185 219.003789 32.2140889 219.263041 31.5954204 219.745223 31.1783439 220.287667 30.7385081 220.974782 30.5170412 221.671975 30.5573248 222.366699 30.5192219 223.049885 30.7469504 223.582803 31.1942675 224.04301 31.5947366 224.304846 32.1765945 224.299363 32.7866242 224.328843 33.4301557 224.072386 34.0538127 223.598726 34.4904459 222.447993 35.3194825 220.895956 35.3194825 219.745223 34.4904459L219.745223 34.5541401zM219.936306 52.5477707C219.49242 52.1406876 219.253082 51.5569366 219.283439 50.955414L219.283439 39.8089172C219.250103 39.2036084 219.496674 38.6165347 219.952229 38.2165605 220.405816 37.8599177 220.967615 37.6689059 221.544586 37.6751592 222.123239 37.6580511 222.688639 37.850287 223.136943 38.2165605 223.592498 38.6165347 223.839069 39.2036084 223.805732 39.8089172L223.805732 50.955414C223.839069 51.5607228 223.592498 52.1477965 223.136943 52.5477707 222.690175 52.918506 222.125034 53.1163053 221.544586 53.1050955 220.960024 53.1118129 220.391368 52.9147539 219.936306 52.5477707L219.936306 52.5477707zM229.888535 52.866242C229.03111 52.6866156 228.21188 52.3578456 227.468153 51.8949045 227.173418 51.7176517 226.931501 51.4647382 226.767516 51.1624204 226.603141 50.8369098 226.521127 50.4760462 226.528662 50.111465 226.510608 49.6877388 226.65273 49.2727446 226.926752 48.9490446 227.157304 48.6458117 227.517172 48.4688274 227.898089 48.4713376 228.168274 48.4747505 228.436506 48.5176677 228.694268 48.5987261L229.522293 48.933121C230.064283 49.1792781 230.623002 49.386802 231.194268 49.5541401 231.865734 49.7210828 232.55676 49.7960778 233.248408 49.7770701 233.798353 49.7951884 234.344564 49.6804842 234.840764 49.4426752 235.201038 49.2826285 235.436691 48.9291487 235.44586 48.5350318 235.458464 48.2784571 235.359806 48.0289105 235.175159 47.8503185 234.896834 47.6209991 234.570196 47.4576798 234.219745 47.3726115 233.757962 47.2292994 233.009554 47.0541401 231.990446 46.8471338 230.570199 46.6594134 229.221655 46.1112251 228.073248 45.2547771 227.257165 44.5192089 226.818064 43.4536572 226.878981 42.3566879 226.873878 41.462333 227.171297 40.5925222 227.72293 39.888535 228.349067 39.1280028 229.168714 38.5503993 230.095541 38.2165605 231.141651 37.7911025 232.26251 37.5799262 233.39172 37.5955414 234.262438 37.5949418 235.129552 37.7073455 235.971338 37.9299363 236.755275 38.1356647 237.505913 38.4520051 238.200637 38.8694268 238.806283 39.2262335 239.167123 39.8867555 239.140127 40.589172 239.154804 41.0318412 239.013952 41.4656663 238.742038 41.8152866 238.511486 42.1185195 238.151618 42.2955038 237.770701 42.2929936 237.171347 42.2581166 236.590621 42.071846 236.082803 41.7515924 235.637496 41.5140942 235.174301 41.3117791 234.697452 41.1464968 234.215976 41.0099724 233.716921 40.9455782 233.216561 40.955414 232.694252 40.9250872 232.174347 41.0467672 231.719745 41.3057325 231.375525 41.5006551 231.162659 41.8655682 231.16242 42.2611465 231.165013 42.6905809 231.421144 43.0779016 231.815287 43.2484076 232.605118 43.5786043 233.434954 43.8034633 234.283439 43.9171975 235.379446 44.1069603 236.448681 44.4277308 237.468153 44.8726115 238.156901 45.1780516 238.74295 45.6756405 239.156051 46.3057325 240.198114 48.2341556 239.653789 50.6359911 237.882166 51.9267516 236.465334 52.8475483 234.792288 53.2936941 233.105096 53.2006369 232.023904 53.2071826 230.94526 53.0950463 229.888535 52.866242z"/>
    <path fill="#000638" d="M84.3949045 63.7738854C84.5618548 63.9562634 84.6529711 64.1954438 84.6496815 64.4426752L84.6496815 79.6178344C84.7800816 80.0181215 84.6377793 80.4568446 84.2972531 80.7043842 83.9567268 80.9519238 83.4955025 80.9519238 83.1549762 80.7043842 82.81445 80.4568446 82.6721477 80.0181215 82.8025478 79.6178344L82.8025478 78.3280255C82.4622023 79.0439289 81.9050717 79.6344873 81.2101911 80.0159236 80.4890821 80.4296783 79.6687666 80.6388863 78.8375796 80.6210191 77.8843781 80.6404915 76.9471543 80.3742977 76.1464968 79.8566879 75.3533546 79.3296531 74.7243344 78.5902785 74.3312102 77.7229299 73.8868388 76.7212558 73.6693378 75.633751 73.6942675 74.5382166 73.6645037 73.4422643 73.8822158 72.3537038 74.3312102 71.3535032 75.1188896 69.5817006 76.8994265 68.461787 78.8375796 68.5191083 79.6672784 68.4963996 80.487497 68.7000781 81.2101911 69.1082803 81.9055316 69.4964435 82.4622454 70.0921273 82.8025478 70.8121019L82.8025478 64.4426752C82.7880286 64.1965574 82.8742553 63.9551227 83.0414013 63.7738854 83.458097 63.4324442 84.0578266 63.4324442 84.4745223 63.7738854L84.3949045 63.7738854zM81.8152866 77.866242C82.5037865 76.9149064 82.8515899 75.7593015 82.8025478 74.5859873 82.8752866 73.4244655 82.5494769 72.2728967 81.8789809 71.3216561 81.237825 70.5492844 80.2700441 70.124405 79.2675159 70.1751592 78.259504 70.1192793 77.2846979 70.5446493 76.6401274 71.3216561 75.9505741 72.2345707 75.6115531 73.3646407 75.6847134 74.5063694 75.6111449 75.6826631 75.9489042 76.8479329 76.6401274 77.8025478 77.3102338 78.5419845 78.2616517 78.9637528 79.2595541 78.9637528 80.2574565 78.9637528 81.2088745 78.5419845 81.8789809 77.8025478L81.8152866 77.866242zM97.6910828 78.0254777C97.8222963 78.1807835 97.8904818 78.379658 97.8821656 78.5828025 97.8821656 78.9808917 97.5955414 79.3471338 97.0382166 79.6815287 95.9225789 80.32192 94.6620471 80.6671961 93.3757962 80.6847134 91.7941214 80.7680407 90.2487661 80.1914157 89.1082803 79.0923567 88.0077485 77.8949416 87.4340526 76.3058039 87.5159236 74.6815287 87.4902208 73.5790855 87.7305497 72.4866815 88.2165605 71.4968153 88.6426922 70.6116788 89.3178426 69.8701201 90.1592357 69.3630573 91.0185643 68.8453183 92.0064771 68.5804032 93.0095541 68.5987261 94.3687097 68.5381268 95.6854248 69.0799609 96.6082803 70.0796178 97.5469197 71.1929027 98.0253264 72.6224275 97.9458599 74.0764331 97.9674446 74.325265 97.8997032 74.5736503 97.7547771 74.7770701 97.5870228 74.9319162 97.360869 75.0073008 97.133758 74.9840764L89.4745223 74.9840764C89.6178344 77.7229299 90.9235669 79.0923567 93.3757962 79.0923567 93.9171844 79.0982814 94.4556404 79.0121285 94.9681529 78.8375796 95.4610935 78.6426986 95.939946 78.4139135 96.4012739 78.1528662 96.6499643 77.9798669 96.9319608 77.8605607 97.2292994 77.8025478 97.4091886 77.8024639 97.5792598 77.8845673 97.6910828 78.0254777zM90.6210191 71.066879C89.9601499 71.8133221 89.5727059 72.7622791 89.522293 73.7579618L96.2738854 73.7579618C96.3109038 72.7804993 96.0006389 71.8214987 95.3980892 71.0509554 94.8030801 70.3907014 93.9454498 70.0289798 93.0573248 70.0636943 92.1482688 70.0142343 91.261507 70.3561882 90.6210191 71.0031847L90.6210191 71.066879zM109.968153 80.0796178C109.524267 79.6725347 109.284929 79.0887838 109.315287 78.4872611L109.315287 60.9713376C109.284929 60.369815 109.524267 59.786064 109.968153 59.3789809 110.422352 59.0234701 110.983742 58.8325975 111.56051 58.8375796 112.138101 58.8274027 112.70118 59.0188496 113.152866 59.3789809 113.596752 59.786064 113.83609 60.369815 113.805732 60.9713376L113.805732 78.4872611C113.83609 79.0887838 113.596752 79.6725347 113.152866 80.0796178 112.702691 80.4442856 112.139838 80.6412842 111.56051 80.6370129 110.981834 80.6373948 110.420243 80.4408381 109.968153 80.0796178zM121.544586 59.6178344C122.062176 60.3394256 122.32034 61.214938 122.27707 62.1019108 122.289285 64.1869654 121.463043 66.1894537 119.984076 67.6592357 119.742004 67.9329379 119.394055 68.0895146 119.028662 68.0891725 118.693712 68.0859694 118.371265 67.9615163 118.121019 67.7388535 117.869522 67.5306569 117.723644 67.221395 117.72293 66.8949045 117.726367 66.5960724 117.846352 66.3103931 118.057325 66.0987261 118.688848 65.4722294 119.158788 64.7017456 119.426752 63.8535032 118.822186 63.7953882 118.257887 63.5245246 117.834395 63.089172 117.402625 62.6293542 117.1732 62.0156438 117.197452 61.3853503 117.15079 60.6991568 117.380083 60.0227411 117.834395 59.5063694 118.291965 59.0097209 118.942873 58.7365719 119.617834 58.7579618 120.356863 58.7395104 121.064778 59.0554393 121.544586 59.6178344L121.544586 59.6178344zM125.796178 62.1019108C125.322519 61.6652777 125.066062 61.0416207 125.095541 60.3980892 125.088163 59.7910274 125.343628 59.2104254 125.796178 58.8057325 126.34009 58.3686126 127.026132 58.1474917 127.72293 58.1847134 128.417654 58.1466104 129.10084 58.374339 129.633758 58.8216561 130.093965 59.2221251 130.355801 59.803983 130.350318 60.4140127 130.385758 61.0506928 130.134588 61.6698548 129.665605 62.1019108 128.511491 62.9386195 126.950292 62.9386195 125.796178 62.1019108L125.796178 62.1019108zM126.066879 80.111465C125.611324 79.7114908 125.364753 79.1244171 125.398089 78.5191083L125.398089 67.3726115C125.363759 66.7637794 125.617297 66.1741576 126.082803 65.7802548 127.057052 65.05831 128.388808 65.05831 129.363057 65.7802548 129.806943 66.1873379 130.046281 66.7710889 130.015924 67.3726115L130.015924 78.5191083C130.046281 79.1206309 129.806943 79.7043818 129.363057 80.111465 128.389114 80.8520095 127.040823 80.8520095 126.066879 80.111465L126.066879 80.111465zM146.990446 66.656051C147.976422 68.0446927 148.44412 69.7351675 148.312102 71.433121L148.312102 78.4872611C148.348769 79.0866174 148.115061 79.6708892 147.675159 80.0796178 146.687694 80.8671766 145.286828 80.8671766 144.299363 80.0796178 143.881983 79.658011 143.662208 79.0796553 143.694268 78.4872611L143.694268 71.656051C143.756015 70.869914 143.554331 70.0855877 143.121019 69.4267516 142.67916 68.9316955 142.030812 68.6723564 141.369427 68.7261146 140.502991 68.688822 139.66221 69.0251346 139.06051 69.6496815 138.463693 70.3165396 138.15462 71.1922471 138.200637 72.0859873L138.200637 78.455414C138.234766 79.0512094 138.008103 79.6323948 137.579618 80.0477707 137.120213 80.4542804 136.520407 80.6656405 135.907643 80.6369427 135.28526 80.6656385 134.675534 80.4547986 134.203822 80.0477707 133.775336 79.6323948 133.548674 79.0512094 133.582803 78.455414L133.582803 67.3089172C133.54062 66.7054317 133.781984 66.1167405 134.235669 65.7165605 134.712887 65.3208301 135.320118 65.116528 135.93949 65.1433121 136.524044 65.1043437 137.099181 65.3056413 137.531847 65.7006369 137.930154 66.0758178 138.150153 66.6026581 138.136943 67.1496815L138.136943 67.5796178C138.624963 66.7942998 139.311554 66.1516506 140.127389 65.7165605 141.018973 65.2805224 142.001285 65.0622307 142.993631 65.0796178 144.497071 64.9649445 145.97009 65.545936 146.990446 66.656051zM154.633758 79.7452229C153.494111 79.1343925 152.562655 78.1973917 151.958599 77.0541401 151.316328 75.787649 150.998957 74.3813643 151.035032 72.9617834 150.998493 71.5193695 151.338778 70.0923649 152.022293 68.8216561 152.661253 67.6462199 153.629839 66.6831692 154.808917 66.0509554 156.09086 65.3836894 157.520073 65.0496588 158.964968 65.0796178 159.79888 65.0810493 160.62889 65.1935023 161.433121 65.4140127 162.212043 65.6197216 162.957427 65.9361077 163.646497 66.3535032 164.25827 66.7061777 164.625671 67.3674995 164.601911 68.0732484 164.619349 68.5311028 164.491121 68.9826903 164.235669 69.3630573 164.016356 69.6916636 163.643308 69.8842045 163.248408 69.8726115 162.991962 69.8742982 162.737681 69.8256062 162.5 69.7292994 162.261146 69.7292994 161.958599 69.5063694 161.576433 69.3312102 161.207671 69.1281717 160.824471 68.9525384 160.429936 68.8057325 160.062728 68.6722484 159.674091 68.6074756 159.283439 68.6146497 158.289003 68.552204 157.322655 68.9587774 156.671975 69.7133758 155.999387 70.6327721 155.677485 71.7622543 155.764331 72.8980892 155.688499 74.0327849 156.009347 75.1585676 156.671975 76.0828025 157.322655 76.8374009 158.289003 77.2439743 159.283439 77.1815287 159.667349 77.1854891 160.049299 77.1263138 160.414013 77.0063694 160.818186 76.8579614 161.211864 76.682402 161.592357 76.4808917L162.515924 76.066879C162.747522 75.9688875 162.996955 75.9200854 163.248408 75.9235669 163.640033 75.9239186 164.005156 76.1214444 164.219745 76.4490446 164.485137 76.8314359 164.619245 77.2896367 164.601911 77.7547771 164.635893 78.4546499 164.26404 79.1115904 163.646497 79.4426752 162.943292 79.8657439 162.181311 80.1823416 161.38535 80.3821656 160.506231 80.6078147 159.601878 80.7201899 158.694268 80.7165605 157.280168 80.743515 155.882578 80.4091896 154.633758 79.7452229zM167.515924 80.0796178C167.060368 79.6796437 166.813797 79.09257 166.847134 78.4872611L166.847134 60.9713376C166.813797 60.3660288 167.060368 59.7789551 167.515924 59.3789809 168.496866 58.659502 169.83116 58.659502 170.812102 59.3789809 171.261761 59.7820138 171.502281 60.3686462 171.464968 60.9713376L171.464968 78.4872611C171.502281 79.0899525 171.261761 79.676585 170.812102 80.0796178 169.838158 80.8201624 168.489867 80.8201624 167.515924 80.0796178L167.515924 80.0796178zM188.83758 65.7165605C189.268362 66.1314855 189.500313 66.7113631 189.474522 67.3089172L189.474522 78.455414C189.517871 79.062413 189.269504 79.6537624 188.805732 80.0477707 188.336494 80.4481879 187.734324 80.6583794 187.117834 80.6369427 186.533786 80.67223 185.960044 80.4714203 185.525478 80.0796178 185.132226 79.6955991 184.918435 79.1640107 184.936306 78.6146497L184.936306 78.3121019C184.505173 79.0569262 183.877073 79.668497 183.121019 80.0796178 180.863012 81.1553334 178.180911 80.7793379 176.305732 79.1242038 175.279258 77.7528656 174.786841 76.0548765 174.920382 74.3471338L174.920382 67.3089172C174.888373 66.7134599 175.114705 66.1331227 175.541401 65.7165605 176.016302 65.3166897 176.625194 65.1118287 177.245223 65.1433121 177.856521 65.1050665 178.457967 65.3112766 178.917197 65.7165605 179.343894 66.1331227 179.570225 66.7134599 179.538217 67.3089172L179.538217 74.4585987C179.488346 75.1615961 179.685461 75.8599486 180.095541 76.433121 180.552287 76.8903341 181.18714 77.1233077 181.83121 77.0700637 182.65956 77.1020136 183.459132 76.763509 184.012739 76.1464968 184.594426 75.4843153 184.896915 74.6225073 184.856688 73.7420382L184.856688 67.3726115C184.82053 66.7795862 185.040921 66.1996123 185.461783 65.7802548 185.92936 65.378516 186.534155 65.173114 187.149682 65.2070064 187.756538 65.157006 188.359764 65.339112 188.83758 65.7165605L188.83758 65.7165605zM195.461783 80.3821656C194.604358 80.2025391 193.785128 79.8737691 193.041401 79.410828 192.746667 79.2335753 192.504749 78.9806618 192.340764 78.6783439 192.176389 78.3528334 192.094375 77.9919697 192.101911 77.6273885 192.083857 77.2036624 192.225978 76.7886682 192.5 76.4649682 192.730552 76.1617353 193.09042 75.984751 193.471338 75.9872611 193.743036 75.9884621 194.012452 76.0369568 194.267516 76.1305732 194.549229 76.2212585 194.825666 76.3275806 195.095541 76.4490446 195.611692 76.6917766 196.143696 76.8992582 196.687898 77.0700637 197.359365 77.2370064 198.050391 77.3120014 198.742038 77.2929936 199.292094 77.3123809 199.838604 77.1976138 200.334395 76.9585987 200.694669 76.7985521 200.930322 76.4450723 200.93949 76.0509554 200.952094 75.7943807 200.853436 75.5448341 200.66879 75.366242 200.392701 75.1335039 200.06522 74.9697633 199.713376 74.888535 199.251592 74.7452229 198.503185 74.5700637 197.484076 74.3630573 196.063829 74.175337 194.715286 73.6271486 193.566879 72.7707006 192.750796 72.0351324 192.311695 70.9695808 192.372611 69.8726115 192.367508 68.9782565 192.664928 68.1084457 193.216561 67.4044586 193.821345 66.6341191 194.617419 66.0356911 195.525478 65.6687898 196.571587 65.2433318 197.692446 65.0321555 198.821656 65.0477707 199.692374 65.0471711 200.559488 65.1595748 201.401274 65.3821656 202.185211 65.587894 202.935849 65.9042344 203.630573 66.3216561 204.233636 66.680957 204.593565 67.3398104 204.570064 68.0414013 204.587499 68.484456 204.446347 68.9192043 204.171975 69.2675159 203.941423 69.5707488 203.581554 69.7477331 203.200637 69.7452229 202.601283 69.7103459 202.020557 69.5240753 201.512739 69.2038217 201.067433 68.9663235 200.604237 68.7640084 200.127389 68.5987261 199.645913 68.4622017 199.146858 68.3978075 198.646497 68.4076433 198.124189 68.3773165 197.604283 68.4989965 197.149682 68.7579618 196.805462 68.9528844 196.592596 69.3177975 196.592357 69.7133758 196.594949 70.1428102 196.85108 70.5301309 197.245223 70.7006369 198.035054 71.0308336 198.864891 71.2556926 199.713376 71.3694268 200.80842 71.5632565 201.877183 71.8838851 202.898089 72.3248408 203.579553 72.6350927 204.159238 73.1319655 204.570064 73.7579618 205.612127 75.6863849 205.067801 78.0882204 203.296178 79.3789809 201.879347 80.2997776 200.2063 80.7459234 198.519108 80.6528662 197.493366 80.6690017 196.468732 80.5782789 195.461783 80.3821656zM208.296178 62.1019108C207.816858 61.6692401 207.559251 61.0427867 207.595541 60.3980892 207.579461 59.7892852 207.836464 59.2051871 208.296178 58.8057325 209.428521 57.9564756 210.985492 57.9564756 212.117834 58.8057325 212.587561 59.2004828 212.856229 59.7845457 212.850318 60.3980892 212.880288 61.0449681 212.61705 61.6708895 212.133758 62.1019108 210.988011 62.9282363 209.441925 62.9282363 208.296178 62.1019108L208.296178 62.1019108zM208.598726 80.0796178C208.149067 79.676585 207.908547 79.0899525 207.94586 78.4872611L207.94586 67.3407643C207.912523 66.7354555 208.159094 66.1483818 208.61465 65.7484076 209.067613 65.3906176 209.62983 65.1994638 210.207006 65.2070064 210.785018 65.194118 211.348996 65.3858705 211.799363 65.7484076 212.249023 66.1514405 212.489542 66.7380729 212.452229 67.3407643L212.452229 78.4872611C212.489542 79.0899525 212.249023 79.676585 211.799363 80.0796178 210.825419 80.8201624 209.477129 80.8201624 208.503185 80.0796178L208.598726 80.0796178zM219.076433 79.7292994C217.900166 79.1152096 216.930928 78.1681257 216.289809 77.0063694 214.995685 74.3979789 214.995685 71.3345052 216.289809 68.7261146 216.936381 67.5725341 217.9046 66.6319784 219.076433 66.0191083 221.728021 64.7671786 224.800642 64.7671786 227.452229 66.0191083 228.624063 66.6319784 229.592282 67.5725341 230.238854 68.7261146 231.532978 71.3345052 231.532978 74.3979789 230.238854 77.0063694 229.597735 78.1681257 228.628497 79.1152096 227.452229 79.7292994 224.805825 81.0041374 221.722838 81.0041374 219.076433 79.7292994L219.076433 79.7292994zM226.624204 72.866242C226.702733 71.7359844 226.393829 70.6127 225.748408 69.6815287 225.137256 68.9509754 224.21493 68.5548486 223.264331 68.6146497 221.019108 68.6146497 219.904459 70.0477707 219.904459 72.9140127 219.904459 75.7802548 221.019108 77.2292994 223.264331 77.2292994 225.509554 77.2292994 226.624204 75.7484076 226.624204 72.866242L226.624204 72.866242zM247.436306 66.656051C248.416655 68.0467833 248.87867 69.7370804 248.742038 71.433121L248.742038 78.4872611C248.776167 79.0830566 248.549505 79.6642419 248.121019 80.0796178 247.649307 80.4866457 247.03958 80.6974857 246.417197 80.6687898 245.804682 80.6958049 245.205489 80.4846606 244.745223 80.0796178 244.320757 79.662605 244.099719 79.0809261 244.140127 78.4872611L244.140127 71.656051C244.201875 70.869914 244.000191 70.0855877 243.566879 69.4267516 243.123571 68.9337658 242.476293 68.6748544 241.815287 68.7261146 240.94814 68.6846197 240.105686 69.0216014 239.506369 69.6496815 238.899156 70.3112479 238.58354 71.1892342 238.630573 72.0859873L238.630573 78.455414C238.662633 79.0478081 238.442858 79.6261638 238.025478 80.0477707 237.038013 80.8353295 235.637146 80.8353295 234.649682 80.0477707 234.20978 79.639042 233.976071 79.0547702 234.012739 78.455414L234.012739 67.3089172C233.96939 66.7019182 234.217757 66.1105688 234.681529 65.7165605 235.153103 65.3218789 235.755027 65.1174517 236.369427 65.1433121 236.953475 65.1080247 237.527217 65.3088345 237.961783 65.7006369 238.355937 66.0774584 238.570321 66.604726 238.550955 67.1496815L238.550955 67.5796178C239.066143 66.7882266 239.77992 66.1458276 240.621019 65.7165605 241.506775 65.2800902 242.484044 65.061706 243.471338 65.0796178 244.963939 64.9748955 246.423092 65.5550407 247.436306 66.656051L247.436306 66.656051z"/>
    <path fill="#7FB4ED" d="M35.4299363,38.9490446 C34.3939503,38.955484 33.3642846,39.1110064 32.3726115,39.410828 C27.4306072,40.9064295 24.3346896,45.8019215 25.1017962,50.9079745 C25.8689028,56.0140275 30.2666311,59.7837136 35.4299363,59.7612473 C36.4665266,59.7626263 37.4973497,59.6069291 38.4872611,59.2993631 C43.3831975,57.7633575 46.4306572,52.8899841 45.6683235,47.8157006 C44.9059898,42.741417 40.5610795,38.9786344 35.4299363,38.9490446"/>
    <path fill="#006ADC" d="M32.5636943,43.4394904 C33.8300118,47.5920961 31.4927208,51.9854838 27.3413591,53.2558733 C23.1899974,54.5262628 18.7943196,52.1932817 17.5198593,48.0431679 C16.245399,43.8930541 18.574068,39.4950903 22.7229299,38.2165605 C24.7204918,37.5965268 26.8828943,37.7992736 28.7303859,38.7798193 C30.5778776,39.760365 31.9576888,41.4376282 32.5636943,43.4394904 L32.5636943,43.4394904 Z"/>
    <path fill="#E5F0FB" d="M49.3630573,1.03490458 C42.2317954,1.0071577 35.888339,5.56042536 33.6331825,12.3257741 C31.378026,19.0911227 33.7207506,26.5398358 39.442439,30.796355 C45.1641274,35.0528742 52.9718912,35.1553849 58.8033585,31.0505508 C64.6348258,26.9457167 67.1723023,19.5610773 65.0955414,12.7388535 C62.9510055,5.83394247 56.5929997,1.10404952 49.3630573,1.03490458"/>
    <path fill="#3388E3" d="M65.4458599,10.3184713 C61.944468,10.3616919 59.0427399,13.0454787 58.7268244,16.5328575 C58.4109089,20.0202363 60.7831188,23.1817798 64.2197452,23.8535032 C64.6292663,23.9301072 65.0451666,23.9674315 65.4617834,23.9650826 C68.9836537,23.9560535 71.9186626,21.265213 72.2326755,17.7573581 C72.5466884,14.2495032 70.1362665,11.0801554 66.6719745,10.4458599 C66.2681879,10.3649148 65.8576624,10.3222628 65.4458599,10.3184713"/>
    <path fill="#006ADC" d="M55.0796178,68.3757962 C56.0039676,71.3932732 55.0195872,74.6704437 52.5855028,76.6791307 C50.1514185,78.6878177 46.7469961,79.0324327 43.9597514,77.5522782 C41.1725067,76.0721238 39.5513566,73.0586999 39.8522593,69.9171959 C40.1531621,66.7756918 42.3168582,64.1247919 45.3343949,63.2006369 C47.312959,62.5902465 49.4531575,62.7930308 51.281872,63.7641619 C53.1105865,64.735293 54.4772046,66.3947887 55.0796178,68.3757962 L55.0796178,68.3757962 Z"/>
    <path fill="#4C96E6" d="M6.92675159,56.8471334 C4.60966761,56.8462371 2.55369541,58.3326576 1.82823353,60.5332448 C1.10277164,62.733832 1.87168481,65.1515251 3.7350286,66.5287792 C5.5983724,67.9060333 8.13526139,67.9317592 10.0261518,66.5925756 C11.9170422,65.2533921 12.7348264,62.8517892 12.0541401,60.6369427 C11.3489894,58.3945115 9.27738409,56.8633249 6.92675159,56.8471334"/>
    <path fill="#B2D2F4" d="M56.5605096,47.2292994 C56.1667447,47.2329543 55.7754464,47.291917 55.3980892,47.4044586 C53.4948659,47.9601355 52.2946682,49.8362488 52.5879944,51.7971148 C52.8813207,53.7579807 54.5779908,55.2007511 56.5605096,55.1751592 C56.9548676,55.1794661 57.347352,55.1203246 57.7229299,55 C59.6261532,54.4443231 60.8263509,52.5682098 60.5330247,50.6073438 C60.2396984,48.6464779 58.5430283,47.2037075 56.5605096,47.2292994"/>
    <path fill="#99C3F1" d="M13.8535032,16.4490214 C8.95505405,16.4490214 4.98407643,20.4200222 4.98407643,25.3184713 C4.98407643,30.2169205 8.95505405,34.1878981 13.8535032,34.1878981 C14.7325432,34.1857648 15.6066951,34.0570553 16.4490446,33.8057325 C20.6589723,32.5282574 23.2961906,28.3577882 22.6455216,24.0066891 C21.9948527,19.65559 18.2529729,16.4390593 13.8535032,16.4490214"/>
  </g>
</svg>
